<?xml version="1.0" encoding="UTF-8" standalone="no"?>
<!-- Created with Inkscape (http://www.inkscape.org/) -->

<svg
   width="500"
   height="600"
   viewBox="0 0 500 600"
   version="1.1"
   id="svg1"
   xml:space="preserve"
   inkscape:export-filename="/home/abhishek/Work/Health Care Project/website/dummy/frontend/public/avatar/maleavatar/03_nose/nose_03.svg"
   inkscape:export-xdpi="96"
   inkscape:export-ydpi="96"
   inkscape:version="1.4.4 (dcaf3e7, 2026-05-05)"
   sodipodi:docname="raw(4).svg"
   xmlns:inkscape="http://www.inkscape.org/namespaces/inkscape"
   xmlns:sodipodi="http://sodipodi.sourceforge.net/DTD/sodipodi-0.dtd"
   xmlns="http://www.w3.org/2000/svg"
   xmlns:svg="http://www.w3.org/2000/svg"><sodipodi:namedview
     id="namedview1"
     pagecolor="#ffffff"
     bordercolor="#000000"
     borderopacity="0.25"
     inkscape:showpageshadow="2"
     inkscape:pageopacity="0.0"
     inkscape:pagecheckerboard="0"
     inkscape:deskcolor="#d1d1d1"
     inkscape:document-units="mm"
     inkscape:export-bgcolor="#ffffff00"
     inkscape:zoom="1.0393815"
     inkscape:cx="-78.893072"
     inkscape:cy="313.16701"
     inkscape:window-width="1920"
     inkscape:window-height="991"
     inkscape:window-x="-9"
     inkscape:window-y="-9"
     inkscape:window-maximized="1"
     inkscape:current-layer="layer7"><inkscape:page
       x="0"
       y="0"
       width="500"
       height="600"
       id="page2"
       margin="0"
       bleed="0" /></sodipodi:namedview><defs
     id="defs1"><linearGradient
       id="SvgjsLinearGradient3480"
       x1="127.637"
       y1="79.821999"
       x2="125.91"
       y2="81.879997"
       gradientTransform="translate(-50)"
       gradientUnits="userSpaceOnUse"
       class="svga-on-canvas-eyesiris-gradient-left-1"><stop
         id="SvgjsStop3481"
         stop-opacity="1"
         stop-color="#ffffff"
         offset="0" /><stop
         id="SvgjsStop3482"
         stop-opacity="0"
         stop-color="#ffffff"
         offset="1" /></linearGradient><linearGradient
       id="SvgjsLinearGradient3485"
       x1="129.63699"
       y1="79.822998"
       x2="127.91"
       y2="81.880997"
       gradientUnits="userSpaceOnUse"
       class="svga-on-canvas-eyesiris-gradient-right-1"><stop
         id="SvgjsStop3486"
         stop-opacity="1"
         stop-color="#ffffff"
         offset="0" /><stop
         id="SvgjsStop3487"
         stop-opacity="0"
         stop-color="#ffffff"
         offset="1" /></linearGradient><radialGradient
       id="SvgjsRadialGradient3619"
       cx="129.041"
       cy="83.945"
       r="15.117"
       gradientTransform="matrix(-0.9945,0.1042,0.1042,0.9945,192.8281,-12.4633)"
       gradientUnits="userSpaceOnUse"
       class="svga-on-canvas-eyesback-gradient-left-0"><stop
         id="SvgjsStop3620"
         stop-opacity="1"
         stop-color="#ffffff"
         offset="0" /><stop
         id="SvgjsStop3621"
         stop-opacity="1"
         stop-color="#fcfdfd"
         offset="0.315" /><stop
         id="SvgjsStop3622"
         stop-opacity="1"
         stop-color="#f4f7f8"
         offset="0.504" /><stop
         id="SvgjsStop3623"
         stop-opacity="1"
         stop-color="#e5ecef"
         offset="0.66" /><stop
         id="SvgjsStop3624"
         stop-opacity="1"
         stop-color="#d8e2e7"
         offset="0.76" /></radialGradient><radialGradient
       id="SvgjsRadialGradient3626"
       cx="128.64301"
       cy="83.986"
       r="15.116"
       gradientTransform="matrix(0.9945,0.1042,-0.1042,0.9945,7.1738,-12.4633)"
       gradientUnits="userSpaceOnUse"
       class="svga-on-canvas-eyesback-gradient-right-0"><stop
         id="SvgjsStop3627"
         stop-opacity="1"
         stop-color="#ffffff"
         offset="0" /><stop
         id="SvgjsStop3628"
         stop-opacity="1"
         stop-color="#fcfdfd"
         offset="0.316" /><stop
         id="SvgjsStop3629"
         stop-opacity="1"
         stop-color="#f4f7f8"
         offset="0.505" /><stop
         id="SvgjsStop3630"
         stop-opacity="1"
         stop-color="#e5ecef"
         offset="0.661" /><stop
         id="SvgjsStop3631"
         stop-opacity="1"
         stop-color="#d8e2e7"
         offset="0.76" /></radialGradient><radialGradient
       id="SvgjsRadialGradient3647"
       cx="68.931"
       cy="105.995"
       r="29.524"
       gradientTransform="matrix(1.0336,0,0,1.0336,-1.6796,1.3127)"
       gradientUnits="userSpaceOnUse"
       class="svga-on-canvas-eyesfront-gradient-left-4"><stop
         id="SvgjsStop3648"
         stop-opacity="0"
         stop-color="#000000"
         offset="0.95" /><stop
         id="SvgjsStop3649"
         stop-opacity="0.2"
         stop-color="#000000"
         offset="1" /></radialGradient><radialGradient
       id="SvgjsRadialGradient3667"
       cx="69.316002"
       cy="105.995"
       r="29.524"
       gradientTransform="matrix(-1.0336,0,0,1.0336,201.6796,1.3127)"
       gradientUnits="userSpaceOnUse"
       class="svga-on-canvas-eyesfront-gradient-right-4"><stop
         id="SvgjsStop3668"
         stop-opacity="0"
         stop-color="#000000"
         offset="0.95" /><stop
         id="SvgjsStop3669"
         stop-opacity="0.2"
         stop-color="#000000"
         offset="1" /></radialGradient></defs><g
     inkscape:groupmode="layer"
     id="layer2"
     inkscape:label="Avatar"><g
       id="svga-group-humanbody-single"
       style="display:none;overflow:hidden"
       transform="matrix(2.1755386,0,0,2.1755386,36.454971,88.852028)"
       inkscape:label="body"><g
         id="g5"
         inkscape:label="body_01"><path
           id="SvgjsPath3240"
           d="m 195.417,199.778 c -2.196,-4.746 -8.195,-11.779 -14.86,-13.722 -8.239,-2.403 -26.837,-5.308 -33.733,-6.923 -5.528,-1.296 -16.662,-11.294 -20.564,-14.65 -0.7,-0.6 -1.273,-1.839 -1.287,-2.76 -0.139,-10.864 4.195,-39.724 4.195,-39.724 H 100 70.833 c 0,0 4.334,28.859 4.193,39.724 -0.011,0.921 -0.587,2.16 -1.285,2.76 -3.902,3.356 -15.036,13.354 -20.564,14.65 -6.897,1.615 -25.495,4.619 -33.733,7.022 -6.667,1.942 -12.664,8.876 -14.86,13.622 -3.708,8.008 -4.584,22.5 -4.584,35 h 100 100 c 0,-12.499 -0.877,-26.991 -4.583,-34.999 z"
           fill="#f0c7b1"
           stroke-width="none"
           opacity="1"
           stroke="none" /><path
           id="SvgjsPath3241"
           d="m 159.156,184.058 c 24.342,3.542 34.586,8.708 37.794,50.721 H 200 c 0,-12.5 -0.877,-26.992 -4.583,-35 -2.196,-4.746 -8.195,-11.779 -14.86,-13.722 -8.239,-2.403 -26.837,-5.308 -33.733,-6.923 -5.528,-1.296 -18.242,-12.069 -21.643,-16.35 3.36,4.704 12.791,15.605 21.054,18.46 3.953,1.366 7.245,1.988 12.921,2.814 z m -105.39,-2.814 c 8.263,-2.854 17.693,-13.756 21.054,-18.46 -3.4,4.28 -16.114,15.054 -21.643,16.35 -6.896,1.615 -25.494,4.619 -33.733,7.022 -6.665,1.942 -12.664,8.876 -14.86,13.622 -3.706,8.008 -4.583,22.5 -4.583,35 h 3.05 c 3.188,-41.744 13.475,-47.183 37.794,-50.721 5.675,-0.825 8.968,-1.447 12.921,-2.813 z"
           fill="#ffe4d6"
           stroke-width="none"
           opacity="1"
           stroke="none" /><path
           id="SvgjsPath3242"
           d="m 95.646,197.62 c 0,0 -5.074,-1.609 -7.083,-2.379 -10.449,-4.009 -44.395,-6.607 -44.395,-6.607 0,0 35.754,1.419 43.644,2.779 -0.458,-4.767 -3.017,-20.004 -3.017,-20.004 0,0 5.149,16.815 6.409,21.057 0.674,2.268 4.442,5.154 4.442,5.154 z m 10.799,-1.342 c -0.089,0.073 -0.191,0.168 -0.302,0.268 0.113,-0.085 0.215,-0.174 0.302,-0.268 z m -10.799,1.342 c 0,0 2.893,2.992 4.347,3.03 1.91,0.051 4.828,-2.899 6.151,-4.104 -1.265,0.957 -4.159,1.391 -5.31,1.436 -1.33,0.051 -5.188,-0.362 -5.188,-0.362 z m 21.018,-7.519 c -1.545,0.248 -4.386,0.789 -4.386,0.789 L 114.565,176 c -0.646,3.071 -4.474,16.211 -8.12,20.278 1.91,-1.616 6.158,-2.391 8.324,-2.704 10.236,-1.484 10.232,-1.483 41.062,-4.94 0,0 -29.071,-0.155 -39.167,1.467 z"
           fill="#e1ac8f"
           stroke-width="none"
           opacity="1"
           stroke="none" /><path
           id="SvgjsPath3243"
           d="m 195.417,199.778 c -2.196,-4.746 -8.195,-11.779 -14.86,-13.722 -8.239,-2.403 -26.837,-5.308 -33.733,-6.923 -5.528,-1.296 -16.662,-11.294 -20.564,-14.65 -0.7,-0.6 -1.273,-1.839 -1.287,-2.76 -0.139,-10.864 4.195,-39.724 4.195,-39.724 H 100 70.833 c 0,0 4.334,28.859 4.193,39.724 -0.011,0.921 -0.587,2.16 -1.285,2.76 -3.902,3.356 -15.036,13.354 -20.564,14.65 -6.897,1.615 -25.495,4.619 -33.733,7.022 -6.667,1.942 -12.664,8.876 -14.86,13.622 -3.708,8.008 -4.584,22.5 -4.584,35 h 100 100 c 0,-12.499 -0.877,-26.991 -4.583,-34.999 z"
           fill="none"
           stroke="#c27b55"
           stroke-width="1.5"
           opacity="1" /></g></g><g
       inkscape:groupmode="layer"
       id="layer11"
       inkscape:label="clothes"
       style="display:none"><g
         id="svga-group-clothes-single"
         style="display:inline;overflow:hidden"
         transform="matrix(2.1755386,0,0,2.1755386,36.454971,88.852028)"><path
           id="SvgjsPath3509"
           d="m -4.807,234.6 c 1.472,-10.806 -0.208,-11.777 4.116,-33.015 1.228,-7.384 2.66,-13.32 8.141,-10.607 4.045,-6.008 15.513,-6.566 57.339,-20.658 v -0.258 c 0.278,-1.001 2.706,-4.267 3.099,-9.897 0.383,-5.449 2.718,-9.56 5.614,-11.604 -6.746,23.685 23.144,14.953 24.208,31.108 0.084,1.273 -0.974,10.149 -0.813,10.969 3.355,-0.679 6.721,-0.684 10.359,-0.645 -3.928,-15.24 -0.545,-16.872 7.344,-19.838 9.564,-3.591 12.873,-7.169 12.01,-20.697 4.57,4.109 1.516,9.7 7.174,17.534 36.249,13.159 50.02,16.863 56.963,21.507 5.981,-4.517 9.697,2.65 17.292,46.103 -71.821,0.61 -153.77,0.518 -212.846,-0.002 z"
           fill="#dcc96b"
           stroke-width="none"
           opacity="1"
           stroke="none" /><path
           id="SvgjsPath3510"
           d="m 92.119,197.235 c 0.304,-0.029 3.375,-5.505 3.375,-5.505 5.764,-2.145 18.375,2.005 34.019,-10.176 -11.519,18.056 -32.37,5.183 -37.394,15.681 z M 70.115,179.378 c 8.754,10.018 23.629,13.732 26.773,10.686 -0.003,0.071 -17.269,-0.668 -26.773,-10.686 z"
           fill="#cdb84f"
           stroke-width="none"
           opacity="1"
           stroke="none" /><path
           id="SvgjsPath3511"
           d="m 73.607,149.423 c 0,0 0.705,6.944 0.82,11.739 -2.101,-4.68 -2.53,-5.93 -0.82,-11.739 z"
           fill="#bda736"
           stroke-width="none"
           opacity="1"
           stroke="none" /><path
           id="SvgjsPath3512"
           d="m 4.781,194.15 c -4.781,13.752 -5.179,28.594 -8.079,40.462 -0.693,-0.006 -0.823,0.293 -1.509,0.287 1.472,-10.806 -0.208,-12.355 4.116,-33.593 1.228,-7.384 2.66,-13.32 8.141,-10.607 4.045,-6.008 15.513,-6.566 57.339,-20.658 v -0.258 c 0.278,-1.001 2.706,-4.267 3.099,-9.897 0.345,-4.904 2.622,-9.431 5.25,-11.325 -5.936,6.453 -1.918,18.345 -8.092,22.976 -11.943,7.43 -46.458,16.309 -60.265,22.613 z m 185.966,-5.651 c -6.943,-4.644 -20.714,-8.348 -56.963,-21.507 -5.658,-7.834 -2.604,-13.425 -7.174,-17.534 0.063,1.001 -0.018,0.613 0,1.51 2.161,-0.43 2.695,15.819 7.443,18.193 19,9 45.261,17.317 59.521,22.632 6.636,10.021 8.157,26.964 13.401,42.817 1.067,-0.009 0,0 1.063,-0.009 -7.594,-43.452 -11.309,-50.619 -17.291,-46.102 z m -64.755,-26.034 c -7.33,12.798 -21.646,4.662 -20.242,19.81 2.738,-14.64 15.421,-6.354 20.242,-19.81 z m -28.62,21.83 C 100,167.804 81.855,170.51 73.739,160.999 c 5.073,10.41 21.814,7.228 23.633,23.296 z"
           fill="#ebdb8a"
           stroke-width="none"
           opacity="1"
           stroke="none" /><path
           id="SvgjsPath3513"
           d="m 196.139,187.915 c -1.581,-1.609 -3.779,-1.259 -5.409,-0.029 -7.133,-4.756 -26.235,-9.496 -56.63,-21.609 0,0 -2.289,-2.963 -3.469,-8.017 -0.783,-3.353 -0.308,-7.087 -4.192,-9.838 -0.749,9.286 -0.411,16.736 -9.51,20.304 -8.959,3.582 -14.71,3.744 -10.319,20.76 -2.301,-0.026 -6.457,-0.018 -9.318,0.563 -0.058,-0.295 1.027,-8.769 0.918,-10.412 -1.014,-15.376 -28.515,-9.625 -24.93,-27.551 0.33,-1.649 0.454,-2.542 0.187,-3.81 -3.67,1.92 -5.337,6.074 -5.847,9.51 -0.556,3.889 0.319,4.852 -3.32,12.13 0,0.011 -0.01,0.021 -0.01,0.03 -0.17,0.05 -0.35,0.11 -0.53,0.17 -41.434,13.791 -52.827,14.785 -56.48,20.22 -5.931,-2.941 -7.458,5.121 -8.46,11.15 -4.398,21.597 -2.602,22.344 -4.2,33.61 1,0 109.661,0.96 212.96,0.01 0.36,0 0.71,-0.01 1.06,-0.01 -0.321,-1.346 -6.418,-41.243 -12.501,-47.181 z m -78.619,-17.76 c 9.877,-4.015 9.506,-9.654 9.367,-19.766 3.437,1.52 0.914,8.914 6.792,16.516 0,4.854 -1.267,9.955 -4.229,13.46 -5.51,6.101 -14.719,9.317 -22.23,9.13 -2.535,-16.158 0.694,-15.404 10.3,-19.34 z m -49.171,-11.15 c 0.062,-2.714 2.16,-8.263 4.9,-10.1 -8.723,23.076 22.427,15.489 23.73,31.92 0.027,0.457 -0.38,8.333 -0.39,8.84 -16.104,-1.896 -23.674,-5.555 -31.64,-19.189 0.02,-0.04 0.04,-0.08 0.06,-0.12 0.01,0.01 0.01,0 0.01,0 2.528,-5.057 2.998,-6.205 3.33,-11.351 z m -72.94,75.45 c 1.436,-5.179 1.375,-14.908 4.04,-28.63 1.58,-7.847 1.629,-17.345 7.48,-15.03 0.02,0 0.03,0.011 0.04,0.011 3.516,8.49 11.016,31.499 11.33,32.5 0.155,0.456 2.074,8.248 2.56,9.89 -2.124,-16.99 -11.493,-39.731 -12.99,-42.14 4.051,-4.15 3.094,-2.325 35.92,-12.7 7.099,-2.245 19.409,-7.106 20.27,-7.601 9.185,19.855 28.548,19.105 32.33,19.521 -11.02,3.397 -4.729,31.249 -3.77,40.96 -0.163,-7.896 -3.465,-29.31 1.25,-36.84 0,0 0.648,-1.301 3.14,-2.38 6.946,-2.627 15.325,2.951 29.95,-7.34 4.758,-4.518 7.13,-7.39 7.13,-17.53 24.029,11.337 46.962,16.747 56.11,21.7 -0.013,0.081 -0.05,0.414 -0.05,0.42 -1.544,13.248 1.243,-1.169 -4.4,28.689 -1.47,8.541 -0.406,5.667 -1.13,13.28 1.481,-7.851 -0.067,-3.756 2.12,-13.12 4.586,-19.338 3.858,-22.946 4.16,-29.39 3.326,-2.396 5.107,0.213 6.399,3.96 4.836,14.695 7.982,34.133 10.09,41.76 -65.83,-0.602 -146.146,-0.571 -211.979,0.01 z m 112.438,-31.774 c -3.239,1.259 -7.306,0.944 -10.905,0.433 6.225,-0.876 10.266,-0.469 10.905,-0.433 z"
           fill="#ae9620"
           stroke-width="none"
           opacity="1"
           stroke="none" /></g></g><g
       inkscape:groupmode="layer"
       id="layer10"
       inkscape:label="08_ear"
       style="display:none"><g
         id="g4"
         transform="matrix(4.0686419,0,0,4.0686419,777.09847,-416.23466)"><g
           id="svga-group-ears-left-move"
           style="display:inline;overflow:hidden"
           transform="matrix(0.53470879,0,0,0.53470879,-182.03704,124.14135)"><g
             id="svga-group-ears-left"><path
               id="SvgjsPath3504"
               d="m 47.69,83.08 c -1.588,-2.376 -8.025,-7.833 -11.703,-6.994 -4.355,0.993 -5.708,4.372 -5.603,6.475 0.606,12.025 4.426,12.016 6.71,16.64 1.709,3.459 3.126,5.044 4.172,11.958 0.598,3.953 4.427,6.984 7.217,6.835 3.908,-0.21 6.994,-3.716 8.291,-7.173 2.689,-7.178 -4.951,-21.556 -9.084,-27.741 z"
               fill="#f0c7b1"
               stroke="#c27b55"
               stroke-width="1.5"
               opacity="1" /><path
               id="SvgjsPath3505"
               d="m 43.274,100.336 c -0.15,-0.554 -0.062,-1.507 0.024,-2.43 0.077,-0.84 1.438,-3.888 1.348,-4.44 -0.344,-2.068 -1.931,-5.94 -2.949,-8.031 -1.169,-2.403 -3.604,-5.409 -5.79,-6.078 -0.904,-0.278 -3.479,0.04 -3.781,0.639 -1.131,2.241 -0.615,4.411 1.1,10.21 0.85,2.873 3.915,6.207 3.998,6.54 1.067,4.343 5.099,11.284 6.488,12.839 0.256,0.288 0.519,0.452 0.579,0.376 0.059,-0.077 -0.104,-0.368 -0.361,-0.656 -1.372,-1.547 -5.367,-8.471 -6.396,-12.662 -1.092,-4.446 2.313,-11.346 2.93,-12.8 0.379,0.642 0.703,1.261 0.954,1.777 0.198,0.406 0.417,0.881 0.645,1.396 -0.367,0.76 -4.245,6.367 -3.026,10.606 0.451,1.563 2.054,4.592 3.432,6.187 0.483,0.559 0.893,0.717 1.19,1.234 0.341,0.599 0.732,1.279 1.792,1.726 0.215,0.091 0.408,0.121 0.577,0.111 0.293,-0.02 0.51,-0.161 0.667,-0.326 0.029,0.271 0.044,0.617 0.051,0.94 0.007,0.413 0.073,0.752 0.162,0.755 0.089,0.003 0.168,-0.333 0.161,-0.746 -0.009,-0.509 -0.04,-1.14 -0.132,-1.437 -0.273,-0.873 -1.028,-1.832 -1.829,-2.844 -0.789,-0.996 -1.603,-2.029 -1.834,-2.886 z M 36.96,94.639 C 34.613,87.86 35.442,80.971 35.857,79.996 c 1.345,0 3.778,2.495 4.397,3.498 -0.38,0.857 -3.417,6.496 -3.294,11.145 z m 8.599,11.775 c -0.961,-0.403 -1.303,-1.001 -1.635,-1.58 -0.299,-0.524 -1.018,-1.022 -1.346,-1.378 -0.191,-0.209 -0.531,-0.767 -0.715,-0.892 -1.762,-7.606 1.345,-10.382 1.967,-10.964 0.231,0.729 0.411,1.399 0.5,1.939 0.082,0.496 -1.28,3.552 -1.352,4.327 -0.089,0.961 -0.182,1.954 -0.012,2.583 0.253,0.938 1.093,2 1.904,3.028 0.72,0.912 1.459,1.852 1.732,2.639 -0.093,0.166 -0.398,0.57 -1.043,0.298 z"
               fill="#c27b55"
               stroke-width="none"
               opacity="1"
               stroke="none" /></g></g><g
           id="svga-group-ears-right-move"
           style="display:inline;overflow:hidden"
           transform="matrix(0.53470879,0,0,0.53470879,-182.03704,124.14135)"><g
             id="svga-group-ears-right"><path
               id="SvgjsPath3506"
               d="m 152.049,83.08 c 1.588,-2.376 8.025,-7.833 11.701,-6.994 4.357,0.993 5.709,4.372 5.604,6.475 -0.605,12.025 -4.426,12.016 -6.709,16.64 -1.711,3.459 -3.127,5.044 -4.174,11.958 -0.598,3.953 -4.428,6.984 -7.217,6.835 -3.908,-0.21 -6.994,-3.716 -8.291,-7.173 -2.688,-7.178 4.953,-21.556 9.086,-27.741 z"
               fill="#f0c7b1"
               stroke="#c27b55"
               stroke-width="1.5"
               opacity="1" /><path
               id="SvgjsPath3507"
               d="m 154.633,103.222 c -0.801,1.013 -1.557,1.972 -1.83,2.844 -0.092,0.297 -0.123,0.928 -0.131,1.437 -0.008,0.413 0.072,0.749 0.16,0.746 0.09,-0.003 0.154,-0.342 0.162,-0.755 0.008,-0.323 0.021,-0.67 0.051,-0.94 0.156,0.165 0.373,0.307 0.666,0.326 0.17,0.01 0.361,-0.021 0.578,-0.111 1.061,-0.446 1.449,-1.126 1.791,-1.726 0.297,-0.517 0.709,-0.675 1.191,-1.234 1.377,-1.594 2.98,-4.624 3.432,-6.187 1.219,-4.239 -2.66,-9.846 -3.027,-10.606 0.229,-0.515 0.447,-0.989 0.645,-1.396 0.252,-0.516 0.576,-1.136 0.955,-1.777 0.617,1.454 4.021,8.354 2.93,12.8 -1.029,4.191 -5.025,11.115 -6.396,12.662 -0.256,0.288 -0.42,0.579 -0.361,0.656 0.061,0.076 0.322,-0.088 0.578,-0.376 1.391,-1.556 5.422,-8.496 6.49,-12.839 0.082,-0.333 3.146,-3.667 3.996,-6.54 1.715,-5.799 2.232,-7.969 1.102,-10.21 -0.303,-0.599 -2.877,-0.917 -3.783,-0.639 -2.186,0.669 -4.619,3.675 -5.789,6.078 -1.018,2.09 -2.605,5.963 -2.949,8.031 -0.09,0.552 1.271,3.6 1.348,4.44 0.086,0.922 0.176,1.875 0.025,2.43 -0.235,0.857 -1.047,1.89 -1.834,2.886 z m 4.851,-19.728 c 0.619,-1.003 3.053,-3.498 4.396,-3.498 0.416,0.975 1.244,7.864 -1.104,14.643 0.126,-4.649 -2.913,-10.288 -3.292,-11.145 z m -6.347,22.622 c 0.273,-0.788 1.012,-1.728 1.732,-2.639 0.811,-1.028 1.65,-2.09 1.904,-3.028 0.168,-0.629 0.076,-1.623 -0.014,-2.583 -0.07,-0.775 -1.434,-3.831 -1.352,-4.327 0.09,-0.54 0.27,-1.21 0.5,-1.939 0.623,0.582 3.729,3.358 1.967,10.964 -0.184,0.125 -0.523,0.683 -0.715,0.892 -0.328,0.356 -1.047,0.854 -1.346,1.378 -0.332,0.579 -0.674,1.177 -1.635,1.58 -0.645,0.272 -0.948,-0.132 -1.041,-0.298 z"
               fill="#c27b55"
               stroke-width="none"
               opacity="1"
               stroke="none" /></g></g></g></g><g
       inkscape:groupmode="layer"
       id="layer4"
       inkscape:label="02_face"
       style="display:none"><g
         id="svga-group-faceshape-wrap"
         style="display:inline;overflow:hidden"
         transform="matrix(2.1755386,0,0,2.1755386,36.454971,88.852028)"><g
           id="svga-group-faceshape-single"
           inkscape:export-filename="face_01.svg"
           inkscape:export-xdpi="96"
           inkscape:export-ydpi="96"><path
             id="SvgjsPath3686"
             d="M 100.002,0.867 C 66.381,0.813 39.186,28.343 39.134,62.366 c -0.008,5.403 0.669,10.645 1.953,15.641 h 0.004 c 0.011,0.054 8.713,39.241 14.519,51.175 6.073,12.487 23.814,32.685 44.392,32.685 20.582,0 38.32,-20.197 44.392,-32.685 5.805,-11.935 14.507,-51.122 14.519,-51.175 h 0.005 C 160.201,73.01 160.879,67.769 160.87,62.366 160.819,28.343 133.623,0.813 100.002,0.867 Z"
             fill="#f0c7b1"
             stroke-width="none"
             opacity="1"
             stroke="none" /><path
             id="SvgjsPath3687"
             d="m 120.754,4.512 c 21.441,9.489 36.411,31.135 36.45,56.363 0.008,5.403 -0.669,10.645 -1.953,15.641 h -0.005 c -0.011,0.054 -8.713,39.24 -14.519,51.177 -5.709,11.738 -21.608,32.469 -40.725,32.469 -19.117,0 -35.016,-20.73 -40.725,-32.469 C 53.471,115.756 44.77,76.57 44.758,76.516 H 44.754 C 43.47,71.519 42.792,66.278 42.801,60.875 42.839,35.646 57.809,14.001 79.251,4.512 55.865,13.062 39.175,35.72 39.134,62.366 c -0.008,5.403 0.669,10.645 1.953,15.641 h 0.004 c 0.011,0.054 8.713,39.241 14.519,51.175 6.073,12.487 23.814,32.685 44.392,32.685 20.579,0 38.319,-20.197 44.392,-32.685 5.805,-11.935 14.507,-51.122 14.519,-51.175 h 0.005 C 160.201,73.01 160.879,67.769 160.87,62.366 160.83,35.72 144.14,13.062 120.754,4.512 Z"
             fill="#e8b9a0"
             stroke-width="none"
             opacity="1"
             stroke="none" /><path
             id="SvgjsPath3688"
             d="M 100.002,0.867 C 66.381,0.813 39.186,28.343 39.134,62.366 c -0.008,5.403 0.669,10.645 1.953,15.641 h 0.004 c 0.011,0.054 8.713,39.241 14.519,51.175 6.073,12.487 23.814,32.685 44.392,32.685 20.582,0 38.32,-20.197 44.392,-32.685 5.805,-11.935 14.507,-51.122 14.519,-51.175 h 0.005 C 160.201,73.01 160.879,67.769 160.87,62.366 160.819,28.343 133.623,0.813 100.002,0.867 Z"
             fill="none"
             stroke="#c27b55"
             stroke-width="1.5"
             opacity="1" /></g></g></g><g
       inkscape:groupmode="layer"
       id="layer5"
       inkscape:label="03_eyes"
       style="display:none"><g
         id="g2"
         inkscape:label="eyes_01"
         transform="matrix(4.0686419,0,0,4.0686419,777.09847,-416.23466)"><g
           id="svga-group-eyes-left-move"
           style="display:inline;overflow:hidden"
           transform="matrix(0.53470879,0,0,0.53470879,-182.03704,124.14135)"><g
             id="svga-group-eyes-left"><g
               id="svga-group-eyesback-left"><path
                 id="SvgjsPath3618"
                 d="m 61.752,82.523 c -0.506,-2.285 5.191,-3.973 12.711,-3.051 7.518,0.923 12.738,5.524 12.052,7.844 -0.38,1.286 -10.639,3.245 -14.253,2.847 -3.664,-0.405 -9.288,-2.123 -10.51,-7.64 z"
                 fill="url(#SvgjsRadialGradient3619)"
                 opacity="1"
                 style="fill:url(#SvgjsRadialGradient3619)" /></g><g
               id="svga-group-eyesiriswrapper-left"
               transform="translate(0.25,0.25)"><g
                 id="svga-group-eyesiriscontrol-left"><g
                   id="svga-group-eyesiris-left"><path
                     id="SvgjsPath3478"
                     d="m 79.788,85.588 c -0.869,3.192 -4.162,5.073 -7.361,4.196 -3.197,-0.876 -5.084,-4.178 -4.214,-7.371 0.869,-3.195 4.168,-5.076 7.365,-4.198 3.194,0.875 5.081,4.177 4.21,7.373 z"
                     fill="#4e60a3"
                     stroke="#152975"
                     stroke-width="0.5"
                     opacity="1" /><path
                     id="SvgjsPath3479"
                     d="m 78.717,82.673 c -0.569,0.873 -2.036,0.925 -3.276,0.117 -1.24,-0.808 -1.784,-2.17 -1.215,-3.043 0.568,-0.872 2.036,-0.924 3.276,-0.117 1.238,0.809 1.782,2.172 1.215,3.043 z"
                     fill="url(#SvgjsLinearGradient3480)"
                     opacity="0.7"
                     style="fill:url(#SvgjsLinearGradient3480)" /></g></g></g><g
               id="svga-group-eyesfront-left"><path
                 id="SvgjsPath3646"
                 d="m 61.752,82.523 c -0.506,-2.285 5.191,-3.973 12.711,-3.051 7.518,0.923 12.738,5.524 12.052,7.844 -0.38,1.286 -10.639,3.245 -14.253,2.847 -3.664,-0.405 -9.288,-2.123 -10.51,-7.64 z"
                 fill="url(#SvgjsRadialGradient3647)"
                 opacity="1"
                 style="fill:url(#SvgjsRadialGradient3647)" /><path
                 id="SvgjsPath3650"
                 d="m 62.148,77.417 c 4.208,-1.978 9.35,-2.16 13.838,-1.005 2.404,0.561 4.965,1.285 7.063,2.638 1.945,1.135 3.525,2.5 5.002,4.19 -1.342,-1.701 -2.773,-3.118 -4.623,-4.27 -2.276,-1.416 -4.769,-2.294 -7.364,-2.916 -4.586,-1.126 -9.722,-0.87 -13.916,1.363 z"
                 fill="#c27b55"
                 stroke-width="none"
                 opacity="1"
                 stroke="none" /><path
                 id="SvgjsPath3651"
                 d="m 62.769,78.02 c 0.88,-0.352 4.065,-1 5.456,-1.066 1.687,-0.082 5.073,0.125 6.735,0.424 3.374,0.608 9.251,2.483 11.678,7.184 0.746,1.445 0.074,2.456 -0.123,2.675 0.3,-2.426 -4.838,-6.746 -12.052,-7.604 -7.52,-0.894 -13.217,0.743 -12.711,2.958 1.222,5.348 6.846,7.013 10.51,7.405 4.099,0.439 11.684,-1.539 12.686,-1.753 -1.999,1.009 -7.524,2.095 -9.767,2.303 -0.744,0.07 -2.24,0.104 -2.986,0.085 -5.949,-0.158 -10.169,-3.175 -11.729,-7.26 -1.002,-2.626 0.094,-4.469 2.303,-5.351 z"
                 fill="#000000"
                 stroke-width="none"
                 opacity="1"
                 stroke="none" /></g></g></g><g
           id="svga-group-eyes-right-move"
           style="display:inline;overflow:hidden"
           transform="matrix(0.53470879,0,0,0.53470879,-182.03704,124.14135)"><g
             id="svga-group-eyes-right"
             style="display:inline"><g
               id="svga-group-eyesback-right"><path
                 id="SvgjsPath3625"
                 d="m 137.849,82.523 c 0.506,-2.285 -5.191,-3.973 -12.711,-3.051 -7.518,0.923 -12.738,5.524 -12.052,7.844 0.38,1.286 10.639,3.245 14.253,2.847 3.664,-0.405 9.288,-2.123 10.51,-7.64 z"
                 fill="url(#SvgjsRadialGradient3626)"
                 opacity="1"
                 style="fill:url(#SvgjsRadialGradient3626)" /></g><g
               id="svga-group-eyesiriswrapper-right"
               transform="translate(-0.25,0.25)"><g
                 id="svga-group-eyesiriscontrol-right"><g
                   id="svga-group-eyesiris-right"><path
                     id="SvgjsPath3483"
                     d="m 131.788,85.588 c -0.869,3.192 -4.162,5.073 -7.362,4.196 -3.196,-0.876 -5.084,-4.178 -4.214,-7.371 0.869,-3.195 4.169,-5.076 7.365,-4.198 3.195,0.875 5.081,4.177 4.211,7.373 z"
                     fill="#4e60a3"
                     stroke="#152975"
                     stroke-width="0.5"
                     opacity="1" /><path
                     id="SvgjsPath3484"
                     d="m 130.717,82.673 c -0.569,0.873 -2.036,0.925 -3.276,0.117 -1.239,-0.808 -1.784,-2.17 -1.215,-3.043 0.568,-0.872 2.035,-0.924 3.275,-0.117 1.239,0.809 1.783,2.172 1.216,3.043 z"
                     fill="url(#SvgjsLinearGradient3485)"
                     opacity="0.7"
                     style="fill:url(#SvgjsLinearGradient3485)" /></g></g></g><g
               id="svga-group-eyesfront-right"><path
                 id="SvgjsPath3666"
                 d="m 137.849,82.523 c 0.506,-2.285 -5.191,-3.973 -12.711,-3.051 -7.518,0.923 -12.738,5.524 -12.052,7.844 0.38,1.286 10.639,3.245 14.253,2.847 3.664,-0.405 9.288,-2.123 10.51,-7.64 z"
                 fill="url(#SvgjsRadialGradient3667)"
                 opacity="1"
                 style="fill:url(#SvgjsRadialGradient3667)" /><path
                 id="SvgjsPath3670"
                 d="m 137.452,77.417 c -4.208,-1.978 -9.35,-2.16 -13.838,-1.005 -2.404,0.561 -4.965,1.285 -7.063,2.638 -1.945,1.135 -3.525,2.5 -5.002,4.19 1.342,-1.701 2.773,-3.118 4.623,-4.27 2.276,-1.416 4.769,-2.294 7.364,-2.916 4.587,-1.126 9.723,-0.87 13.916,1.363 z"
                 fill="#c27b55"
                 stroke-width="none"
                 opacity="1"
                 stroke="none" /><path
                 id="SvgjsPath3671"
                 d="m 136.832,78.02 c -0.88,-0.352 -4.065,-1 -5.456,-1.066 -1.687,-0.082 -5.073,0.125 -6.735,0.424 -3.374,0.608 -9.251,2.483 -11.678,7.184 -0.746,1.445 -0.074,2.456 0.123,2.675 -0.3,-2.426 4.838,-6.746 12.052,-7.604 7.52,-0.894 13.217,0.743 12.711,2.958 -1.222,5.348 -6.846,7.013 -10.51,7.405 -4.099,0.439 -11.684,-1.539 -12.686,-1.753 1.999,1.009 7.524,2.095 9.767,2.303 0.744,0.07 2.24,0.104 2.986,0.085 5.949,-0.158 10.169,-3.175 11.729,-7.26 1.002,-2.626 -0.094,-4.469 -2.303,-5.351 z"
                 fill="#000000"
                 stroke-width="none"
                 opacity="1"
                 stroke="none" /></g></g></g></g></g><g
       inkscape:groupmode="layer"
       id="layer6"
       inkscape:label="04_eyebrow"
       style="display:none"><g
         id="g3"
         inkscape:label="eyebrows_01"
         transform="matrix(4.0686419,0,0,4.0686419,777.09847,-416.23466)"><g
           id="svga-group-eyebrows-left-move"
           style="display:inline;overflow:hidden"
           transform="matrix(0.53470879,0,0,0.53470879,-182.03704,124.14135)"><g
             id="svga-group-eyebrows-left-rotate"><g
               id="svga-group-eyebrows-left"><path
                 id="SvgjsPath3672"
                 d="m 53.672,67.988 c 7.019,3.546 15.071,4.443 31.64,6.435 0.542,0.086 0.929,0.187 1.277,0.191 1.666,-0.032 3.083,-1.561 2.854,-2.926 -0.783,-5.203 -28.761,-2.768 -35.771,-3.7 z"
                 fill="#4e4341"
                 stroke-width="none"
                 opacity="1" /></g></g></g><g
           id="svga-group-eyebrows-right-move"
           style="display:inline;overflow:hidden"
           transform="matrix(0.53470879,0,0,0.53470879,-182.03704,124.14135)"><g
             id="svga-group-eyebrows-right-rotate"><g
               id="svga-group-eyebrows-right"><path
                 id="SvgjsPath3673"
                 d="m 146.328,67.988 c -7.019,3.546 -15.071,4.443 -31.64,6.435 -0.542,0.086 -0.929,0.187 -1.277,0.191 -1.666,-0.032 -3.084,-1.561 -2.854,-2.926 0.783,-5.203 28.76,-2.768 35.771,-3.7 z"
                 fill="#4e4341"
                 stroke-width="none"
                 opacity="1" /></g></g></g></g></g><g
       inkscape:groupmode="layer"
       id="layer7"
       inkscape:label="05_nose"
       style="display:inline"><g
         id="svga-group-nose-single-move"
         style="display:none;overflow:hidden"
         transform="matrix(2.1755386,0,0,2.1755386,36.454971,88.852028)"><g
           id="svga-group-nose-single"><path
             id="SvgjsPath3502"
             d="m 99.084,89.999 c 0,0 -0.887,20.454 -0.765,24.946 0.035,1.275 2.489,4.617 2.322,7.054 0,0 -4.788,-0.349 -6.345,-0.898 -1.629,-0.578 -4.151,-1.704 -3.154,-4.85 1.42,-4.475 7.942,-26.252 7.942,-26.252 z"
             fill="#e1ac8f"
             stroke-width="none"
             opacity="1"
             stroke="none" /><path
             id="SvgjsPath3503"
             d="m 98.638,119.598 c 0,0 -1.985,-0.705 -3.239,-0.669 -1.142,0.035 -1.306,-0.726 -1.191,-1.158 0.116,-0.433 0.507,-0.701 1.61,-0.407 1.103,0.294 2.82,2.234 2.82,2.234 z m 2.955,0.002 c 0,0 1.98,-0.653 3.239,-0.667 1.142,-0.014 1.308,-0.726 1.191,-1.157 -0.116,-0.435 -0.508,-0.705 -1.61,-0.411 -1.103,0.297 -2.82,2.235 -2.82,2.235 z"
             fill="#c27b55"
             stroke-width="none"
             opacity="1"
             stroke="none" /></g></g><g
         id="svga-group-nose-single-move-0"
         style="display:none;overflow:hidden"
         inkscape:label="nose_01"
         transform="matrix(3,0,0,3,-46.411675,-14.875005)"><g
           id="svga-group-nose-single-7"><path
             id="SvgjsPath3068"
             d="m 91.115,115.499 c -0.878,2.064 5.934,4.292 8.519,4.429 2.8,0.147 10.646,-2.9 9.316,-4.992 -1.399,-2.195 -6.643,-0.286 -8.906,-0.286 -2.252,-0.001 -7.753,-1.905 -8.929,0.849 z"
             fill="#e1ac8f"
             stroke-width="none"
             opacity="1" /><path
             id="SvgjsPath3069"
             d="m 101.857,117.058 c -0.23,-0.759 1.876,-1.584 2.657,-1.694 1.101,-0.16 3.36,0.802 3.158,1.592 -0.184,0.698 -2.148,-0.533 -2.86,-0.429 -0.734,0.107 -2.737,1.242 -2.955,0.531 z m -6.883,-0.247 c 0.968,0 2.404,0.623 2.668,0.074 0.315,-0.655 -2.139,-1.461 -2.86,-1.372 -0.596,0.07 -2.733,1.315 -2.439,1.839 0.274,0.481 1.355,-0.541 2.631,-0.541 z"
             fill="#c27b55"
             stroke-width="none"
             opacity="1" /><path
             id="SvgjsPath3070"
             d="m 100.089,111.999 c 0.607,0 1.742,-0.74 1.792,-2.23 0.201,-6.008 -0.956,-23.833 -1.792,-23.77 -0.78,0.059 -2.267,17.637 -1.948,23.77 0.079,1.502 1.263,2.23 1.948,2.23 z"
             fill="#fff5ef"
             stroke-width="none"
             opacity="0.2" /></g></g><g
         id="svga-group-nose-single-move-08"
         style="display:none;overflow:hidden"
         inkscape:label="nose_02"
         transform="matrix(3,0,0,3,-41.97862,-12.14023)"><g
           id="svga-group-nose-single-3"><path
             id="SvgjsPath3071"
             d="m 95.993,113.767 c -0.221,2.279 0.695,4.137 1.688,4.511 2.534,0.951 2.097,-0.253 2.327,-4.159 0.493,-8.369 -0.306,-28.12 -0.306,-28.12 0,0 -3.189,22.41 -3.709,27.768 z"
             fill="#fff5ef"
             stroke-width="none"
             opacity="0.2" /><path
             id="SvgjsPath3072"
             d="m 96.658,109.854 c 0,0 -2.249,4.36 -1.897,5.857 0.458,1.947 2.677,3.501 6.516,3.265 -3.965,-0.567 -4.419,-1.791 -4.819,-3.392 -0.349,-1.396 0.2,-5.73 0.2,-5.73 z"
             fill="#c27b55"
             stroke-width="none"
             opacity="1" /></g></g><g
         id="svga-group-nose-single-move-7"
         style="display:none;overflow:hidden"
         inkscape:label="nose_03"
         transform="matrix(3,0,0,3,-47.449567,-20.117217)"><g
           id="svga-group-nose-single-0"><path
             id="SvgjsPath3073"
             d="m 109.895,118.829 c 0.19,-0.512 0.307,-1.047 0.396,-1.584 0.033,-0.198 -0.229,-0.929 -0.252,-0.697 -0.101,0.941 -0.612,2.262 -1.6,2.551 -1.133,0.329 -1.783,-0.056 -1.886,-1.172 -0.104,-1.125 0.297,-2.619 -0.109,-3.665 -0.264,-0.676 -0.856,-1.226 -1.464,-1.606 0.458,2.04 0.823,4.704 -1.128,6.164 0.167,0.199 0.319,0.293 0.467,0.333 -0.153,0.026 -0.308,0.059 -0.467,0.13 -0.771,0.352 -3.586,1.015 -4.404,0.657 -0.193,-0.085 -0.622,-0.152 -1.16,-0.204 -0.362,-0.315 -1.023,-1.138 -1.332,-1.328 -1.215,-0.751 -1.851,-2.069 -1.926,-3.472 -0.163,-2.955 1.373,-6.245 4.861,-7.528 -3.578,-1.004 -4.064,4.863 -6.408,6.172 -1.402,0.783 -2.741,1.479 -2.716,3.229 0.008,0.579 0.078,1.419 0.34,2.122 -0.421,-0.591 -0.699,-1.125 -0.739,-0.653 -0.342,3.979 3.522,2.884 5.042,3.158 1.255,0.227 3.412,0.544 4.459,0.563 1.137,0.02 2.858,-0.377 3.981,-0.563 1.087,-0.181 2.985,0.037 4.381,-0.59 0.824,-0.371 2.006,-0.612 2.006,-2.211 l -0.402,0.326 c 0.02,-0.045 0.043,-0.087 0.06,-0.132 z"
             fill="#e1ac8f"
             stroke-width="none"
             opacity="1" /><path
             id="SvgjsPath3074"
             d="m 90.642,116.322 c 0.15,-0.48 0.371,-0.961 0.73,-1.324 -0.631,1.095 -0.719,2.661 -0.152,3.799 0.697,1.399 1.94,1.104 3.131,0.563 1.191,-0.54 1.188,-0.938 2.426,-0.526 0.963,0.319 1.737,0.795 2.797,0.793 1.132,-0.002 1.977,-0.471 3.03,-0.798 1.278,-0.38 2.357,-0.162 3.559,0.378 1.13,0.509 2.426,1.15 3.301,-0.117 0.773,-1.148 0.69,-2.922 0.017,-4.092 1.51,1.542 1.145,5.938 -1.745,5.384 -0.397,-0.08 -1.098,-0.563 -1.451,-0.469 -0.64,0.175 -1.445,0.007 -2.091,-0.054 -1.175,-0.112 -2.195,-0.108 -3.312,0.174 -0.429,0.1 -0.869,0.158 -1.309,0.154 -0.525,-0.007 -1.057,-0.268 -1.556,-0.237 -1.4,0.086 -1.984,-0.214 -3.39,-0.124 -1.197,0.077 -1.955,1.13 -3.142,0.177 -1.049,-0.878 -1.21,-2.437 -0.843,-3.681 0.077,-0.244 -0.145,0.492 0,0 z m 10.569,-8.66 c 0.557,0.115 1.063,0.367 1.531,0.684 -1.391,-2.209 -4.931,-1.408 -6.339,0.345 1.44,-0.765 3.159,-1.395 4.808,-1.029 0.267,0.057 -0.533,-0.119 0,0 z"
             fill="#c27b55"
             stroke-width="none"
             opacity="1" /><path
             id="SvgjsPath3075"
             d="m 93.079,117.678 c -0.216,-1.586 0.406,-3.049 -0.995,-1.972 -0.87,0.669 1.334,4.462 0.995,1.972 z"
             fill="#ffe4d6"
             stroke-width="none"
             opacity="1" /></g></g><g
         id="svga-group-nose-single-move-6"
         style="display:none;overflow:hidden"
         inkscape:label="nose_04"
         transform="matrix(3,0,0,3,-43.662024,-16.155107)"><g
           id="svga-group-nose-single-5"><path
             id="SvgjsPath3078"
             d="m 101.103,118.646 c -0.471,0.511 -0.857,0.45 -1.3,-0.08 l -4.951,-5.988 h 12.15 z"
             fill="#e1ac8f"
             stroke-width="none"
             opacity="1" /><path
             id="SvgjsPath3079"
             d="m 93.465,113.508 6.435,5.234 c 0.537,0.437 0.744,0.271 0.463,-0.367 l -2.294,-5.2 c -0.112,-0.252 -0.146,-0.675 -0.078,-0.942 l 1.364,-9.233 -6.072,8.74 c -0.435,0.537 -0.355,1.332 0.182,1.768 z"
             fill="#c27b55"
             stroke-width="none"
             opacity="1" /></g></g><g
         id="svga-group-nose-single-move-61"
         style="display:none;overflow:hidden"
         inkscape:label="nose_05"
         transform="matrix(3,0,0,3,-42.980016,-13.026562)"><g
           id="svga-group-nose-single-2"><path
             id="SvgjsPath3082"
             d="m 101.1,120.646 c -0.471,0.511 -0.856,0.45 -1.301,-0.08 l -4.95,-5.988 H 107 Z"
             fill="#e1ac8f"
             stroke-width="none"
             opacity="1" /><path
             id="SvgjsPath3083"
             d="m 93.461,115.507 6.435,5.235 c 0.537,0.437 0.744,0.271 0.464,-0.367 l -2.295,-5.2 c -0.112,-0.252 -0.146,-0.676 -0.078,-0.943 l 1.676,-26.41 -6.383,25.917 c -0.436,0.537 -0.355,1.332 0.181,1.768 z"
             fill="#c27b55"
             stroke-width="none"
             opacity="1" /></g></g><g
         id="svga-group-nose-single-move-8"
         style="display:none;overflow:hidden"
         inkscape:label="nose_06"
         transform="matrix(3,0,0,3,-39.169462,-11.761336)"><g
           id="svga-group-nose-single-1"><path
             id="SvgjsPath3084"
             d="m 98.633,89.999 c 0,0 -1.71,11.42 -2.512,14.455 -0.805,3.047 -4.078,8.052 -3.862,10.964 0.322,4.314 6.351,4.581 8.585,4.581 l -3.713,-4.472 c 0,0 1.735,-7.615 1.916,-10.528 0.19,-3.075 -0.414,-15 -0.414,-15 z"
             fill="#e1ac8f"
             stroke-width="none"
             opacity="1" /><path
             id="SvgjsPath3085"
             d="m 98,86.058 c 0,0 1.369,10.941 -0.117,19.334 -0.477,2.694 -3.909,7.452 -3.38,10.135 0.377,1.904 6.342,4.472 6.342,4.472 0,0 -2.572,-3.011 -2.623,-4.472 -0.09,-2.581 1.564,-7.416 1.726,-9.995 C 100.193,101.622 98,86.058 98,86.058 Z"
             fill="#c27b55"
             stroke-width="none"
             opacity="1" /></g></g><g
         id="svga-group-nose-single-move-01"
         style="display:none;overflow:hidden"
         inkscape:label="nose_07"
         transform="matrix(2.8196074,0,0,2.8196074,-20.435402,6.7390376)"><g
           id="svga-group-nose-single-29"><path
             id="SvgjsPath3086"
             d="m 94.796,89.999 c 0,0 0.662,2.241 0.681,2.916 0.032,1.147 -0.103,2.045 -0.191,2.927 -0.58,5.758 -3.586,14.09 -3.425,18.067 0.07,1.712 1.128,4.21 1.128,4.21 0,0 -2.542,-0.701 -3.101,-5.553 -0.23,-2.002 1.721,-5.877 2.403,-7.755 0.647,-1.785 1.91,-7.571 2.353,-9.437 0.187,-0.781 0.521,-1.724 0.516,-2.533 -0.004,-0.72 -0.364,-2.842 -0.364,-2.842 z m -0.29,28.603 c 0,0 0.301,2.663 3.245,3.315 2.763,0.612 4.313,-2.404 4.313,-2.404 0,0 -2.296,1.547 -4.06,0.991 -0.93,-0.291 -3.498,-1.902 -3.498,-1.902 z m 10.592,-5.735 c -0.02,0.639 -0.199,2.485 -0.199,2.485 0,0 0.906,-1.484 0.964,-2.07 0.104,-1.052 -1.065,-4.084 -1.065,-4.084 0,0 0.327,2.742 0.3,3.669 z"
             fill="#e1ac8f"
             stroke-width="none"
             opacity="1" /><path
             id="SvgjsPath3087"
             d="m 92.478,108.461 c -1.227,4.164 -2.094,8.571 1.484,10.533 0.468,0.257 0.969,0.446 1.479,0.554 0.277,0.058 0.48,0.31 0.723,0.474 0.558,0.384 1.478,0.438 2.117,0.555 2.458,0.455 4.941,-0.609 5.549,-3.155 -1.53,2.193 -2.884,2.799 -4.966,2.624 -2.498,-0.211 -4.583,-2.446 -5.237,-5.069 -0.39,-1.56 -0.542,-3.127 -0.425,-4.754 0.108,-1.396 0.488,-2.781 0.708,-4.164 0.413,-2.495 1.411,-7.713 1.404,-10.318 -0.399,1.816 -1.121,6.099 -1.395,7.145 -0.204,0.778 -0.637,2.358 -0.813,3.146 -0.139,0.628 -0.45,1.821 -0.628,2.429 z m -0.284,6.943 c -0.163,-1.227 0.045,-2.518 0.295,-3.708 0.088,2.364 0.71,5.117 2.126,6.864 -1.223,-0.522 -2.213,-1.604 -2.421,-3.156 -0.146,-1.097 0.252,1.886 0,0 z"
             fill="#c27b55"
             stroke-width="none"
             opacity="1" /><path
             id="SvgjsPath3088"
             d="m 95.565,113.18 c 0.158,0.764 0.032,1.453 -0.282,1.542 -0.313,0.088 -0.636,-0.376 -0.793,-1.14 -0.158,-0.763 -0.09,-1.535 0.222,-1.623 0.314,-0.089 0.695,0.458 0.853,1.221 z"
             fill="#ffe4d6"
             stroke-width="none"
             opacity="1" /></g></g><g
         id="svga-group-nose-single-move-4"
         style="display:none;overflow:hidden"
         inkscape:label="nose_08"
         transform="matrix(2.6151475,0,0,2.6151475,-2.7510024,28.449302)"><g
           id="svga-group-nose-single-10"><path
             id="SvgjsPath3089"
             d="m 100.729,120.838 c -0.354,0.161 -1.185,0.161 -1.448,-0.103 0,0 -6.296,-2.153 -5.498,-4.215 1.264,-3.262 12.727,-0.761 12.717,0 -0.025,1.942 -5.771,4.318 -5.771,4.318 z"
             fill="#e1ac8f"
             stroke-width="none"
             opacity="1" /><path
             id="SvgjsPath3090"
             d="m 92.215,113.609 c 0,0 5.448,-18.624 6.008,-22.61 1.063,6.47 -1.503,20.873 -1.774,23.812 -0.329,3.569 3.455,5.688 3.455,5.688 0.293,0.371 -0.061,0.602 -0.516,0.456 l -6.631,-2.559 c -1.571,-1.335 -1.571,-2.606 -0.542,-4.787 z m 10.961,3.302 c 0.915,0.207 1.106,0.576 1.035,0.957 -0.069,0.385 -0.462,0.911 -1.288,0.43 -0.907,-0.526 -2.619,-0.767 -2.619,-0.767 0,0 1.957,-0.83 2.872,-0.62 z"
             fill="#c27b55"
             stroke-width="none"
             opacity="1" /></g></g><g
         id="svga-group-nose-single-move-5"
         style="display:none;overflow:hidden"
         inkscape:label="nose_09"
         transform="matrix(2.7632984,0,0,2.7632984,-19.955345,3.3993015)"><g
           id="svga-group-nose-single-8"><path
             id="SvgjsPath3091"
             d="m 99.979,120.982 c -2.599,-0.079 -7.224,-2.758 -6.672,-5.166 0.511,-2.238 3.422,0.816 6.766,0.844 3.343,0.027 7.336,-1.967 7.806,0.277 0.757,3.624 -3.713,4.175 -7.9,4.045 z"
             fill="#e8b9a0"
             stroke-width="none"
             opacity="1" /><path
             id="SvgjsPath3092"
             d="m 105.793,119.62 c 0.21,0.275 0.572,0.275 0.797,-0.002 0.231,-0.277 0.243,-0.727 0.027,-1.001 -1.568,-2.021 -4.39,0.688 -4.177,0.969 0.079,0.105 2.168,-1.473 3.353,0.034 z m -11.687,-5.143 c 0.329,2.148 1.012,5.016 6.507,6.519 -5.417,-0.161 -8.937,-1.169 -8.908,-6.206 0.015,-2.549 2.678,-7.79 2.678,-7.79 0,0 -0.625,5.207 -0.277,7.477 z"
             fill="#c27b55"
             stroke-width="none"
             opacity="1" /></g></g><g
         id="svga-group-nose-single-move-2"
         style="display:none;overflow:hidden"
         inkscape:label="nose_10"
         transform="matrix(2.5626861,0,0,2.5626861,-2.6486916,33.852213)"><g
           id="svga-group-nose-single-4"><path
             id="SvgjsPath3093"
             d="m 99.757,119.999 c -0.91,0 -1.88,0.006 -2.721,-0.371 -0.899,-0.405 -1.498,-0.567 -2.429,-0.902 -0.899,-0.324 -1.98,0.466 -2.88,0.541 -0.728,0.06 -1.559,-0.149 -2.003,-0.719 -1.499,-1.917 0.286,-3.096 0.286,-3.096 0,0 -0.583,1.346 -0.212,1.942 0.319,0.509 0.789,0.925 1.369,1.063 0.968,0.235 1.889,-0.476 2.839,-0.55 1.062,-0.083 1.833,-0.102 2.602,0.519 0.767,0.619 1.606,0.737 2.582,0.787 0.906,0.049 1.857,0.088 2.708,-0.263 0.743,-0.303 1.365,-0.835 2.062,-1.226 1.482,-0.831 2.647,0.212 4.194,0.633 1.238,0.338 2.575,-0.86 2.09,-2.225 -0.277,-0.777 -0.232,-1.24 -0.232,-1.24 0,0 1.181,0.535 1.11,1.854 -0.089,1.642 -1.521,2.794 -3.137,2.361 -0.794,-0.21 -1.65,-0.808 -2.493,-0.656 -0.857,0.153 -1.517,0.154 -2.229,0.622 -1.076,0.708 -2.216,0.926 -3.506,0.926 z"
             fill="#c27b55"
             stroke-width="none"
             opacity="1" /><path
             id="SvgjsPath3094"
             d="m 93.316,110.211 c 0,0 3.245,-4.518 6.193,-4.573 2.73,-0.05 6.324,3.968 6.324,3.968 0,0 -3.311,-1.387 -6.588,-1.156 -2.925,0.205 -5.929,1.761 -5.929,1.761 z"
             fill="#e8b9a0"
             stroke-width="none"
             opacity="1" /></g></g><g
         id="svga-group-nose-single-move-28"
         style="display:none;overflow:hidden"
         inkscape:label="nose_11"
         transform="matrix(2.6151557,0,0,2.6151557,-7.3458581,25.993882)"><g
           id="svga-group-nose-single-20"><path
             id="SvgjsPath3095"
             d="m 92.142,118.55 c 3.337,-3.304 12.982,-2.522 15.725,-0.181 -5.824,2.776 -9.358,1.985 -15.725,0.181 z"
             fill="#e8b9a0"
             stroke-width="none"
             opacity="1" /><path
             id="SvgjsPath3096"
             d="m 100.067,120.999 c -1.354,0 -2.731,-0.479 -3.924,-0.945 -0.485,-0.188 -0.961,-0.339 -1.495,-0.417 -0.667,-0.099 -1.898,0.078 -2.391,-0.322 -0.524,-0.428 -0.097,-1.101 0.619,-1.126 0.883,0.011 1.778,0.062 2.635,0.241 1.5,0.317 2.783,1.135 4.373,1.236 1.205,0.076 2.544,-0.524 3.622,-0.883 0.847,-0.282 3.679,-1.335 4.362,-0.414 0.423,0.568 -0.255,0.973 -0.905,1.002 -0.805,0.035 -1.598,0.251 -2.342,0.483 -1.438,0.45 -2.971,1.145 -4.554,1.145 z"
             fill="#c27b55"
             stroke-width="none"
             opacity="1" /><path
             id="SvgjsPath3097"
             d="m 99.985,116.39 c 0.637,0 2.125,-0.742 1.881,-2.181 -1.445,-8.496 -1.881,-23.21 -1.881,-23.21 0,0 -1.105,17.234 -2.049,23.21 -0.229,1.455 1.329,2.181 2.049,2.181 z"
             fill="#fff5ef"
             stroke-width="none"
             opacity="0.2" /></g></g><g
         id="svga-group-nose-single-move-78"
         style="display:none;overflow:hidden"
         inkscape:label="nose_12"
         transform="matrix(3,0,0,3,-45.40493,-15.950783)"><g
           id="svga-group-nose-single-58"><path
             id="SvgjsPath3101"
             d="m 106.875,113.602 c 0.883,7.516 -4.979,4.153 -7.005,4.481 -1.619,0.264 -8.75,2.319 -7.19,-4.58 0.209,-0.924 3.23,-6.504 7.057,-6.504 3.581,0 6.789,3.635 7.138,6.603 z"
             fill="#f8d5c3"
             stroke-width="none"
             opacity="1" /><path
             id="SvgjsPath3102"
             d="m 104.726,115.406 c 0.037,0.119 -2.054,2.09 -2.157,1.992 -0.545,0.393 -1.476,0.759 -2.501,0.767 -0.691,0.007 -1.31,-0.38 -1.81,-0.327 -0.019,-0.078 -4.518,-1.747 -4.794,-2.395 -0.414,0.095 -0.714,0.293 -0.833,0.591 -0.308,0.773 0.702,1.917 2.255,2.556 0.768,0.315 1.936,0.537 2.54,0.498 0.411,0.593 1.123,0.922 2.459,0.911 1.476,-0.015 2.896,-0.352 3.161,-1.044 0.36,0.22 1.734,-0.087 2.248,-0.336 0.565,-0.273 1.505,-1.062 1.528,-2.022 0.016,-0.817 -1.217,-1.345 -2.096,-1.191 z"
             fill="#e1ac8f"
             stroke-width="none"
             opacity="1" /><path
             id="SvgjsPath3103"
             d="m 98.24,118.314 c -0.091,0.224 -0.292,0.382 -0.556,0.487 -0.354,-0.579 -1.084,-1.174 -2.026,-1.585 -1.097,-0.478 -2.167,-0.568 -2.814,-0.312 -0.225,-0.364 -0.301,-0.72 -0.176,-1.018 0.321,-0.768 1.83,-0.842 3.371,-0.172 1.539,0.671 2.524,1.837 2.201,2.6 z m 7.781,-1.857 c 0.19,-0.052 0.347,0.015 0.497,0.046 0.089,-0.736 -0.514,-1.269 -1.534,-1.244 -1.195,0.029 -2.502,0.815 -2.913,1.755 -0.349,0.8 0.065,1.446 0.931,1.605 0.012,-0.129 0.589,-1.491 3.019,-2.162 z"
             fill="#c27b55"
             stroke-width="none"
             opacity="1" /></g></g><g
         id="svga-group-nose-single-move-65"
         style="display:inline;overflow:hidden"
         inkscape:label="nose_13"
         transform="matrix(2.6186936,0,0,2.6186936,-5.4500075,21.480084)"><g
           id="svga-group-nose-single-09"><path
             id="SvgjsPath3104"
             d="m 99.084,89.999 c 0,0 -0.887,20.454 -0.765,24.946 0.035,1.275 2.489,4.617 2.322,7.054 0,0 -4.788,-0.349 -6.345,-0.898 -1.629,-0.578 -4.151,-1.704 -3.154,-4.85 1.42,-4.475 7.942,-26.252 7.942,-26.252 z"
             fill="#e1ac8f"
             stroke-width="none"
             opacity="1" /><path
             id="SvgjsPath3105"
             d="m 98.638,119.598 c 0,0 -1.985,-0.705 -3.239,-0.669 -1.142,0.035 -1.306,-0.726 -1.191,-1.158 0.116,-0.433 0.507,-0.701 1.61,-0.407 1.103,0.294 2.82,2.234 2.82,2.234 z m 2.955,0.002 c 0,0 1.98,-0.653 3.239,-0.667 1.142,-0.014 1.308,-0.726 1.191,-1.157 -0.116,-0.435 -0.508,-0.705 -1.61,-0.411 -1.103,0.297 -2.82,2.235 -2.82,2.235 z"
             fill="#c27b55"
             stroke-width="none"
             opacity="1" /></g></g><g
         id="svga-group-nose-single-move-3"
         style="display:none;overflow:hidden"
         inkscape:label="nose_14"
         transform="matrix(2.4226959,0,0,2.4226959,13.448582,42.435701)"><g
           id="svga-group-nose-single-28"><path
             id="SvgjsPath3106"
             d="m 105.07,117.886 c 1.053,0 1.338,0.28 1.338,0.625 0,0.347 -0.328,0.879 -1.338,0.624 -1.109,-0.276 -3.046,-0.148 -3.046,-0.148 0,0 1.994,-1.101 3.046,-1.101 z m -10.053,0 c -1.054,0.001 -1.337,0.282 -1.337,0.628 -0.001,0.345 0.317,0.842 1.337,0.624 1.125,-0.241 3.046,-0.149 3.046,-0.149 0,0 -1.992,-1.099 -3.046,-1.103 z m 13.592,-3.738 c 0,0 1.458,1.654 1.154,3.403 -0.294,1.699 -3.238,2.447 -3.238,2.447 0,0 2.044,-1.297 2.292,-2.873 0.116,-0.735 -0.208,-2.977 -0.208,-2.977 z m -17.992,-1.702 c 0,0 -1.063,2.316 -0.755,3.727 0.558,2.547 3.625,3.565 3.625,3.565 0,0 -1.914,-1.747 -2.594,-3.291 -0.744,-1.684 -0.276,-4.001 -0.276,-4.001 z"
             fill="#c27b55"
             stroke-width="none"
             opacity="1" /><path
             id="SvgjsPath3107"
             d="m 105.019,115.38 c 1.021,-0.761 1.124,-1.195 0.912,-1.479 -0.21,-0.284 -0.823,-0.464 -1.678,0.453 -0.942,1.012 -2.991,1.758 -2.991,1.758 0,0 2.735,0.031 3.757,-0.732 z"
             fill="#ffe4d6"
             stroke-width="none"
             opacity="1" /></g></g><g
         id="svga-group-nose-single-move-9"
         style="display:none;overflow:hidden"
         inkscape:label="nose_15"
         transform="matrix(2.2989184,0,0,2.2989184,25.214309,72.105025)"><g
           id="svga-group-nose-single-87"><path
             id="SvgjsPath3108"
             d="m 96.831,88.524 c 0,0 -1.399,11.117 -2.026,13.281 -1.379,4.752 -6.168,11.417 -5.239,14.429 1.859,6.022 7.537,4.493 10.524,4.471 2.763,-0.022 8.072,1.552 9.162,-2.37 0.352,-1.266 -0.441,-4.466 -0.441,-4.466 0,0 -2.644,3.112 -8.875,2.767 -1.778,-0.099 -4.671,-2.096 -4.704,-4.912 -0.043,-3.817 1.802,-7.035 2.205,-10.824 0.304,-2.878 -0.606,-12.376 -0.606,-12.376 z"
             fill="#e1ac8f"
             stroke-width="none"
             opacity="1" /><path
             id="SvgjsPath3109"
             d="m 105.194,118.969 c 1.075,0 1.366,0.326 1.366,0.729 0,0.404 -0.335,1.026 -1.366,0.73 -1.134,-0.323 -3.113,-0.175 -3.113,-0.175 0,0 2.036,-1.284 3.113,-1.284 z m -10.272,0 c -1.077,0.001 -1.366,0.328 -1.366,0.733 -10e-4,0.403 0.323,0.983 1.366,0.729 1.15,-0.282 3.112,-0.175 3.112,-0.175 0,0 -2.035,-1.283 -3.112,-1.287 z m 13.888,-5.1 c 0,0 1.489,1.933 1.18,3.975 -0.301,1.983 -3.31,2.861 -3.31,2.861 0,0 2.089,-1.516 2.342,-3.356 0.118,-0.863 -0.212,-3.48 -0.212,-3.48 z m -18.383,-1.986 c 0,0 -1.086,2.704 -0.772,4.352 0.571,2.976 3.704,4.164 3.704,4.164 0,0 -1.955,-2.039 -2.65,-3.842 -0.761,-1.97 -0.282,-4.674 -0.282,-4.674 z"
             fill="#c27b55"
             stroke-width="none"
             opacity="1" /><path
             id="SvgjsPath3110"
             d="m 105.141,115.311 c 1.043,-0.889 1.148,-1.396 0.932,-1.729 -0.215,-0.334 -0.841,-0.545 -1.714,0.528 -0.963,1.18 -3.056,2.054 -3.056,2.054 0,0 2.795,0.034 3.838,-0.853 z"
             fill="#ffe4d6"
             stroke-width="none"
             opacity="1" /></g></g></g><g
       inkscape:groupmode="layer"
       id="layer8"
       inkscape:label="06_mouth"
       style="display:none"><g
         id="svga-group-mouth-single-move"
         style="display:inline;overflow:hidden"
         transform="matrix(2.1755386,0,0,2.1755386,36.454971,88.852028)"
         inkscape:export-filename="mouth_01.svg"
         inkscape:export-xdpi="96"
         inkscape:export-ydpi="96"><g
           id="svga-group-mouth-single"><path
             id="SvgjsPath3497"
             d="m 81.783,130.557 c 3.57,-0.112 10.625,-0.609 13.211,-0.457 1.337,0.079 3.53,0.999 4.971,1.313 1.003,0.22 4.814,-0.817 5.842,-0.822 2.687,-0.017 8.513,1.274 11.642,1.782 0.173,0.027 0,0 0,0 0,0 -7.699,6.575 -17.56,6.143 -11.161,-0.491 -18.106,-7.959 -18.106,-7.959 0,0 -0.177,0.005 0,0 z"
             fill="#98a2a2"
             stroke-width="none"
             opacity="1"
             stroke="none" /><path
             id="SvgjsPath3498"
             d="m 117.743,132.177 c -0.085,-0.126 -0.641,-0.245 -0.846,-0.221 -0.373,0.044 -0.643,0.389 -1.425,0.458 -0.904,0.084 -5.695,0.815 -7.002,0.782 -2.629,-0.064 -5.647,0.561 -8.157,0.451 -2.513,-0.11 -6.464,-1.159 -9.077,-1.344 -1.297,-0.092 -6.623,-1.333 -7.505,-1.507 -0.759,-0.15 -0.82,-0.506 -1.125,-0.607 -0.215,-0.074 -0.832,-0.023 -0.999,0.09 -0.145,0.1 -0.1,0.557 0.001,0.683 0.248,0.305 1.167,0.435 1.838,0.568 0.931,0.184 6.336,1.438 7.67,1.532 2.586,0.186 6.589,1.303 9.123,1.414 2.532,0.112 5.608,-0.587 8.21,-0.521 1.338,0.034 6.197,-0.699 7.156,-0.784 0.694,-0.064 1.556,-0.179 1.876,-0.402 0.153,-0.105 0.345,-0.46 0.262,-0.592 z"
             fill="#4a7474"
             stroke-width="none"
             opacity="1"
             stroke="none" /><path
             id="SvgjsPath3499"
             d="m 99.999,137.244 c -4.411,-0.192 -11.369,-1.912 -14.032,-4.152 1.629,0.195 5.155,0.481 6.772,0.693 1.997,0.265 4.761,1.003 6.795,1.192 2.196,0.202 5.2,-0.237 7.342,-0.422 1.79,-0.153 4.563,-0.661 6.35,-0.72 -3.005,1.793 -8.969,3.595 -13.227,3.409 z m 7.158,-4.638 c 1.602,-0.081 4.101,-0.628 5.694,-0.675 -1.796,-0.491 -4.499,-0.493 -6.406,-0.697 -1.646,-0.174 -4.155,0.69 -5.787,0.804 -1.838,0.132 -4.022,-1.204 -5.733,-1.333 -1.857,-0.138 -5.733,0.283 -7.555,0.604 1.556,0.17 4.94,0.433 6.472,0.682 1.878,0.306 4.573,0.966 6.522,1.052 1.998,0.088 4.819,-0.335 6.793,-0.437 z"
             fill="#a8aaaa"
             stroke-width="none"
             opacity="1"
             stroke="none" /><path
             id="SvgjsPath3500"
             d="m 100.006,136.455 c -2.626,-0.118 -6.989,-1.062 -8.873,-2.365 0.482,0.022 1.884,0.146 2.348,0.189 0.146,0.015 0.293,0.031 0.438,0.05 0.757,0.101 1.489,0.304 2.271,0.515 0.759,0.207 2.481,0.47 3.329,0.557 0.167,0.019 0.333,0.027 0.501,0.034 1.043,0.048 2.983,-0.061 3.943,-0.21 0.609,-0.095 1.182,-0.192 1.77,-0.247 0.32,-0.032 0.669,-0.047 1.061,-0.049 0.336,-0.003 0.689,0.006 1.036,0.017 -1.767,0.895 -5.117,1.628 -7.824,1.509 z"
             fill="#b1b1b1"
             stroke-width="none"
             opacity="1"
             stroke="none" /></g></g></g><g
       inkscape:groupmode="layer"
       id="layer9"
       inkscape:label="07_hair"
       style="display:none"><g
         id="svga-group-hair-front"
         style="display:none;overflow:hidden"
         transform="matrix(2.1755386,0,0,2.1755386,36.454971,88.852028)"
         inkscape:label="hair_01"
         inkscape:export-filename="hair_01.svg"
         inkscape:export-xdpi="96"
         inkscape:export-ydpi="96"><path
           id="SvgjsPath3400"
           d="M 47.026,91.499 C 36.463,75.132 33.771,45.712 41.42,29.37 45.097,21.218 52.92,12.5 61.353,7.158 64.649,5.403 76.268,-0.361 86.56,-0.361 c 2.41,0 4.566,0.328 6.409,0.976 l 0.128,0.045 0.117,-0.068 c 2.99,-1.725 6.747,-2.046 14.581,-2.148 l 0.25,-0.003 c 1.869,0 3.991,0.519 6.679,1.175 2.018,0.493 4.305,1.052 7.044,1.532 14.452,2.091 25.214,9.782 31.994,22.861 11.354,21.899 7.755,51.169 2.551,61.403 -1.005,1.71 -2.747,3.986 -3.457,4.895 -2.569,-6.597 -2.109,-9.274 -1.58,-12.363 0.486,-2.823 1.035,-6.024 -0.416,-12.708 -1.813,-9.123 -1.767,-9.825 -1.657,-11.519 0.071,-1.119 0.169,-2.653 -0.163,-7.04 -1.297,-8.593 -4.051,-18.792 -13.937,-21.607 l -0.787,-0.224 0.465,0.674 c 1.439,2.09 2.693,3.223 4.146,4.534 1.005,0.907 2.043,1.844 3.289,3.227 -0.877,0.208 -1.729,0.307 -2.646,0.307 -0.667,0 -1.372,-0.052 -2.153,-0.158 l -0.747,-0.102 0.482,0.582 c 0.824,0.995 2.164,2.119 3.241,3.022 0.251,0.21 0.489,0.411 0.706,0.597 -1.888,0.188 -5.86,0.565 -8.83,0.565 -0.9,0 -1.652,-0.035 -2.233,-0.102 -12.426,-0.972 -21.939,-4 -33.822,-16.606 l -0.219,-0.233 -0.213,0.238 c -2.139,2.382 -3.451,3.556 -5.765,5.442 -10.797,8.529 -29.024,15.677 -38.67,17.811 2.717,-3.577 3.516,-6.073 3.868,-7.173 l 0.08,-0.245 -0.5,-0.286 c -1.06,1.211 -1.746,1.854 -2.594,2.512 0.01,-0.048 0.021,-0.097 0.031,-0.147 0.235,-1.119 0.629,-2.991 1.007,-6.871 l 0.109,-1.112 -0.642,0.915 c -4.648,6.618 -4.203,16.015 -3.811,24.306 0.209,4.41 0.407,8.576 -0.191,11.822 -0.241,1.31 -0.404,2.164 -0.523,2.786 -0.193,1.004 -0.272,1.42 -0.372,2.184 -0.42,2.467 -0.084,4.289 0.271,6.218 0.545,2.961 1.109,6.022 -1.054,11.946 z"
           fill="#4e4341"
           stroke-width="none"
           opacity="1"
           stroke="none" /><path
           id="SvgjsPath3401"
           d="m 156.313,85.41 c -1.005,1.71 -2.747,3.986 -3.457,4.895 -4.851,-12.454 1.084,-10.881 -1.996,-25.071 -1.813,-9.123 -1.767,-9.825 -1.657,-11.519 0.071,-1.119 0.169,-2.653 -0.163,-7.04 -2.384,-15.797 -7.969,-19.74 -14.626,-21.635 3.238,4.701 4.341,4.399 7.802,8.238 -2.017,0.48 -3.552,0.319 -5.546,0.047 1.524,1.839 1.919,2.045 4.43,4.2 C 120.215,39.608 108.493,34.41 95.996,21.149 84.298,34.184 60.663,42.583 51.347,44.644 c 2.298,-3.023 3.205,-5.132 3.947,-7.418 l -0.5,-0.286 c -1.06,1.211 -1.746,1.854 -2.594,2.512 0.636,-3.031 0.833,-4.916 1.146,-8.13 -4.916,6.998 -4.992,13.839 -4.453,25.221 0.436,9.196 0.166,10.015 -0.714,14.607 -1.88,9.786 2.647,9.943 -1.153,20.35 C 36.463,75.132 33.771,45.712 41.42,29.37 42.962,25.951 45.241,22.434 47.982,19.105 38.866,36.426 41.119,55.202 44.068,73.364 47.251,58.39 39.083,36.376 56.74,24.604 c -0.251,4.011 0.04,4.3 -1.274,8.526 1.999,-1.542 4.529,-3.101 7.099,-5.442 0,4.905 -2.439,7.648 -5.505,12.554 8.215,-3.434 32.004,-13.243 38.019,-28.679 8.829,11.772 22.562,20.601 38.257,22.563 -3.924,-1.962 -4.904,-5.886 -6.866,-8.829 1.329,1.994 3.557,2.636 5.771,3.148 -3.475,-3.993 -2.631,-5.865 -3.475,-10.928 8.321,5.933 13.512,6.156 18.417,13.022 8.089,14.409 9.959,31.208 8.187,48.006 3.777,-22.269 4.31,-50.502 -11.041,-67.09 21.334,19.576 18.972,60.215 11.984,73.955 z M 93.642,10.649 C 85.946,20.322 74.892,27.218 63.804,34.11 83.652,24.708 89.941,16.459 93.642,10.649 Z M 65.194,20.461 C 70.966,13.814 81.8,9.921 90.699,9.017 82.568,10.689 71.246,14.978 65.194,20.461 Z M 44.92,35.176 C 48.285,23.756 57.789,13.46 72.714,9.017 58.992,14.661 49.245,24.915 44.92,35.176 Z m 80.685,-6.215 C 113.649,25.48 103.483,17.905 98.546,10.978 c 6.255,6.931 18.558,14.181 27.059,17.983 z m 3.074,-13.771 c -14.388,-6.021 -18.71,-7.194 -28.497,-7.809 11.195,-0.519 17.256,1.502 28.497,7.809 z m 24.148,19.005 C 148.963,23.443 136.872,11.905 123.398,8.69 c 14.775,1.867 26.695,13.416 29.429,25.505 z"
           fill="#3f312e"
           stroke-width="none"
           opacity="1"
           stroke="none" /><path
           id="SvgjsPath3402"
           d="m 94.097,3.715 c 14.096,-8.107 44.343,1.048 57.75,17.071 C 146.288,10.976 132.303,2.67 121.768,1.146 115.106,-0.021 111.325,-1.598 107.795,-1.558 99.573,-1.45 96.131,-1.095 93.097,0.659 83.864,-2.557 69.931,2.59 61.353,7.158 58.729,8.82 53.695,13.276 51.297,15.473 68.464,3.783 84.65,-2.185 94.097,3.715 Z"
           fill="#564d4c"
           stroke-width="none"
           opacity="1"
           stroke="none" /><path
           id="SvgjsPath3403"
           d="m 121.818,0.856 c -6.584,-1.154 -10.664,-2.793 -14.027,-2.708 -7.737,0.1 -11.611,0.391 -14.724,2.187 -8.972,-3.15 -22.903,1.795 -31.873,6.574 -8.02,5.081 -16.169,13.751 -20.041,22.337 -8.027,17.149 -4.684,49.433 5.944,62.9 3.936,-10.303 -0.077,-12.436 1,-18.776 0.159,-1.218 0.262,-1.515 0.893,-4.954 1.729,-9.384 -3.103,-25.966 3.954,-36.012 -0.499,5.102 -1.016,6.692 -1.178,7.74 1.253,-0.918 1.984,-1.569 3.247,-3.012 -0.327,0.981 -1.062,3.779 -4.395,7.966 9.303,-1.88 28.306,-9.127 39.583,-18.04 2.392,-1.951 3.708,-3.148 5.797,-5.474 11.396,12.089 20.639,15.651 34.001,16.696 3.146,0.369 9.898,-0.339 11.8,-0.529 -1.059,-0.97 -3.264,-2.633 -4.424,-4.032 1.894,0.257 3.62,0.234 5.356,-0.285 h 0.01 c -0.083,-0.123 -0.218,-0.244 -0.274,-0.313 -3.09,-3.438 -5.032,-4.266 -7.446,-7.77 9.221,2.625 12.299,11.911 13.724,21.346 0.852,11.268 -1.146,3.633 1.825,18.6 3.108,14.311 -3.034,12.512 2.198,25.593 0,0 2.492,-3.111 3.806,-5.346 8.587,-16.881 10.834,-78.09 -34.756,-84.688 z m 38.073,63.008 c -1.55,19.571 -3.241,21.057 -6.994,26.369 -0.645,-1.984 -1.137,-3.356 -1.334,-4.169 -1.516,-5.478 2.872,-9.442 0.353,-21.042 -2.856,-14.166 -1.015,-7.291 -1.814,-18.491 -1.686,-10.32 -5.623,-19.876 -16.03,-21.611 1.051,2.778 6.656,7.095 8.124,8.407 -2.439,0.315 -4.725,0.001 -5.759,-0.049 0.789,1.27 3.118,3.265 4.325,4.199 C 119.339,37.878 108.656,32.481 96.256,21.3 96.237,21.29 96.227,21.271 96.207,21.261 96.07,21.134 95.933,21.015 95.806,20.888 89.128,28.493 67.53,39.546 51.319,44.745 c 2.4,-2.865 3.952,-5.566 4.493,-9.221 -0.858,0.981 -1.332,1.814 -3.453,3.777 0.713,-2.228 1.159,-6.304 1.236,-8.662 -10.057,11.69 -4.527,26.921 -5.915,35.58 -0.379,3.881 -1.742,6.671 -0.981,11.831 0.654,3.077 2.125,6.251 0.235,13.165 C 36.576,74.925 35.282,45.483 42.579,29.895 46.868,20.4 57.772,8.731 69.87,4.075 76.998,1.569 86.016,-1.657 93.031,0.681 c 4.046,-2.016 7.167,-1.611 12.449,-1.716 6.179,-0.163 8.392,1.685 16.106,3.168 9.354,1.753 17.338,6.065 21.366,9.781 13.246,11.49 17.902,34.375 16.939,51.95 z"
           fill="#201311"
           stroke-width="none"
           opacity="1"
           stroke="none"
           style="display:inline" /></g><g
         id="g7"
         inkscape:label="hair_02"
         transform="matrix(2.820987,0,0,2.820987,614.76993,-207.46223)"
         style="display:inline"
         inkscape:export-filename="hair_02.svg"
         inkscape:export-xdpi="96"
         inkscape:export-ydpi="96"><path
           id="SvgjsPath3803"
           d="M 152.983,98.604 C 148.42,86.169 153.7,67.098 144.778,52.989 140.714,46.227 137.181,41.58 137.828,33.713 l -0.368,-0.124 c -0.862,1.352 -1.994,2.82 -2.745,3.76 0.427,-1.091 1.123,-2.762 1.753,-4.023 l -0.332,-0.218 c -2.585,3.073 -4.805,4.649 -7.859,5.5 3.3,-2.32 6.949,-6.357 8.546,-8.595 l -0.271,-0.284 C 125.233,37.012 112.388,37.111 101.056,37.2 90.829,37.276 84.477,37.045 77.103,32.759 71.782,34.523 67.592,34.298 62.987,31.124 48.573,59.071 54.977,45.081 46.36,96.888 41.356,90.218 39.902,85.976 38.718,79.621 38.405,77.594 38.099,74.467 38.289,72.406 l -0.063,-0.065 c -4.452,-9.77 -6.553,-15.333 -5.495,-34.712 0.785,-8.04 2.533,-14.076 7.574,-20.398 -0.665,-3.435 -0.729,-6.898 -0.277,-10.21 -2.64,-4.827 -4.457,-9.795 -5.165,-11.57 3.688,2.823 3.993,2.986 7.07,3.957 0.704,-1.937 1.73,-3.861 2.387,-4.865 0.297,2.238 0.533,3.75 1.203,5.925 0.228,0.055 1.313,0.349 1.66,0.442 -0.199,-1.324 -0.381,-1.938 -0.353,-3.125 0.571,1.302 1.053,1.604 2.71,3.626 1.834,0.385 1.394,0.328 1.944,0.328 -2.669,-4.183 -4.47,-7.885 -4.927,-13.515 3.653,2.081 8.764,3.27 14.101,3.27 12.539,0 25.369,-9.412 43.169,-9.412 15.425,0 28.771,8.558 34.683,18.303 -0.006,-2.514 -0.113,-4.594 0.794,-7.178 0,0 0.105,3.705 0.105,6.592 l 0.396,0.037 c 0.62,-3.301 1.928,-6.115 4.088,-8.773 -1.918,5.158 -1.188,2.404 -3.334,8.702 l 0.348,0.187 c 1.431,-1.839 2.603,-3.139 6.019,-4.862 -2.468,2.473 -4.355,3.89 -5.522,5.639 l 0.301,0.259 c 1.456,-1.32 2.971,-1.82 4.512,-0.613 -2.481,-0.902 -3.946,0.679 -5.648,2.675 6.619,1.091 10.21,4.91 14.864,10.015 10.712,12.352 13.533,24.411 7.723,41.506 2.435,5.263 2.06,17.125 -3.375,26.686 -0.002,5.61 -3.84,12.532 -6.798,17.347 z"
           fill="#4e4341"
           stroke-width="none"
           opacity="1"
           style="overflow:hidden"
           transform="matrix(0.79375,0,0,0.79375,-207.23491,101.44154)" /><path
           id="SvgjsPath3804"
           d="m 62.299,30.371 c 0.359,0.334 0.718,0.668 1.074,1.004 C 63.244,31.29 63.115,31.211 62.985,31.122 48.571,59.069 54.975,45.079 46.358,96.886 41.354,90.216 39.9,85.974 38.716,79.619 38.403,77.592 38.097,74.465 38.287,72.404 L 38.224,72.339 C 33.772,62.569 31.671,57.006 32.729,37.627 33.514,29.587 35.262,23.551 40.303,17.229 39.649,13.851 39.583,10.447 40.01,7.185 40.607,8.059 41.233,8.91 41.873,9.75 42.304,12.374 42.669,14.933 42,17 32.461,46.478 38,60 44,81 41.536,65.069 36.858,44.815 49.619,33 44.168,46.096 45.673,52.034 47,61 47.917,49.082 52.195,37.996 62.299,30.371 Z M 155.432,13.06 c -0.376,-0.412 -0.742,-0.812 -1.106,-1.207 -0.382,0.255 -0.774,0.489 -1.159,0.737 14.956,30.661 0.594,27.717 4.017,41.409 C 161.183,63.999 156,70 156,80 156,65 155.319,54.561 147.04,42.825 144.244,38.862 143.459,25.402 141.575,18.751 118.373,33 84.002,35.981 47.916,7.183 c 17,6 51.649,1.35 63.543,-6.316 -13.558,2.461 -41.862,2.608 -54.59,-2.631 30.5,-2.37 30.131,-12.16 56.131,-14 -12.5,-4.667 -39.804,7.254 -52.342,7.254 -5.336,0 -10.447,-1.188 -14.101,-3.27 0.457,5.63 2.258,9.333 4.927,13.515 -0.551,0 -0.11,0.057 -1.944,-0.328 -1.658,-2.022 -2.14,-2.325 -2.71,-3.626 -0.029,1.187 0.154,1.801 0.353,3.125 -0.347,-0.093 -1.433,-0.387 -1.66,-0.442 -0.67,-2.175 -0.906,-3.687 -1.203,-5.925 -0.656,1.004 -1.683,2.928 -2.387,4.865 -3.078,-0.971 -3.382,-1.134 -7.07,-3.957 0.708,1.775 2.525,6.744 5.165,11.57 -0.007,0.055 -0.009,0.111 -0.016,0.166 6.305,9.235 15.169,16.471 23.363,24.192 4.454,2.924 8.558,3.096 13.729,1.382 7.374,4.286 13.727,4.517 23.953,4.441 11.332,-0.088 24.177,-0.188 35.496,-7.471 l 0.271,0.284 c -1.597,2.238 -5.246,6.275 -8.546,8.595 3.055,-0.852 5.274,-2.428 7.859,-5.5 l 0.332,0.218 c -0.63,1.262 -1.326,2.932 -1.753,4.023 0.751,-0.94 1.883,-2.408 2.745,-3.76 l 0.368,0.124 c -0.646,7.868 2.886,12.514 6.95,19.276 8.922,14.109 3.643,33.181 8.205,45.615 2.958,-4.815 6.796,-11.736 6.796,-17.352 5.435,-9.561 5.81,-21.423 3.375,-26.686 5.81,-17.093 2.989,-29.152 -7.723,-41.504 z m 0.733,25.649 c -0.33,-9.524 -6.633,-21.612 -6.633,-21.612 -2.946,-5.204 -5.579,-7.687 -9.996,-8.695 12.426,0.619 17.306,19.179 16.769,28.875 -0.051,0.9 -0.14,1.432 -0.14,1.432 z M 127.907,-1.507 c 3.283,2.663 4.067,3.423 7.296,7.909 -16.653,-29.889 -49.333,-7.27 -59.667,-8 10.505,2.171 34.257,-13.192 52.371,0.091 z m 8.462,12.992 C 116.408,28.033 85.929,21.023 61,13.21 c 24.827,11.371 56.435,17.524 75.369,-1.725 z m -78.5,18 c -6.539,3.425 -9.616,12.05 -9.9,17.75 1.221,-4.919 4.885,-13.944 9.9,-17.75 z m -8.25,-4.75 C 40.26,30.434 38.445,43.506 39.369,54.485 40.353,44.343 42.181,31.11 49.619,24.735 Z M 117.064,12.34 c -1.006,0.215 -7.259,1.072 -10.672,1.195 -2.661,0.155 -13.037,0.328 -22.391,-0.048 9.655,2.069 15.454,2.454 22.496,2.045 8.106,-0.293 15.36,-1.898 21.371,-6.796 -4.235,2.331 -6.04,2.663 -10.804,3.604 z m 33.545,26.545 c 0,0 -0.256,-0.441 -0.588,-1.102 -0.911,-1.527 -1.945,-5.681 -5.938,-18.736 2.966,24.195 7.817,19.782 9.991,32.283 10e-4,-4.496 -0.313,-6.801 -3.465,-12.445 z"
           fill="#3f312e"
           stroke-width="none"
           opacity="1"
           style="overflow:hidden"
           transform="matrix(0.79375,0,0,0.79375,-207.23491,101.44154)" /><path
           id="SvgjsPath3805"
           d="m 157.853,68.131 c 0.364,-3.246 0.217,-1.758 0.257,-3.61 0.306,-6.244 -3.426,-11.479 -1.154,-18.987 1.854,-5.453 2.925,-6.308 2.113,-15.801 -0.119,-1.37 -0.474,-4.774 -1.102,-5.998 0.856,1.489 1.422,4.245 1.725,5.934 1.687,9.543 0.268,10.992 -1.521,16.267 -2.39,7.97 2.197,11.486 -0.318,22.195 z m -16.278,-49.38 c 1.117,30.37 7.276,23.316 12.717,41.752 -3.694,-21.746 -7.111,-3.717 -12.717,-41.752 z M 48.369,34.235 c -9.19,11.563 -8.262,19.899 -6,37 -0.204,-17.31 -2.314,-23.88 6,-37 z M 41.772,17.714 C 36.498,34.033 35.343,41.398 37.875,58.999 37.406,41.353 37.518,37.458 41.772,17.714 Z m 20.18,12.927 C 52.322,37.56 47.295,50.217 47,61 48.482,50.695 54.012,37.697 61.952,30.641 Z m 66.903,-6.047 C 116.804,29.031 97.188,30.219 82.867,25.916 71.706,22.661 54.279,11.723 44.905,4.845 c 8.498,6.765 23.471,16.807 33.926,20.776 10.863,4.059 27.887,5.567 41.081,2.245 9.248,-2.324 14.041,-4.52 21.663,-9.114 -3.393,1.86 -8.391,4.49 -12.72,5.842 z m -26.042,-36.188 c 12.167,-2.285 26.509,5.558 34.057,14.83 -7.897,-11.318 -20.837,-16.949 -28.562,-17.083 -12.679,-0.22 -25.795,10.643 -51.439,11.582 24.113,1.062 35.704,-7.671 45.944,-9.329 z m 9.556,12.829 C 95.08,7.378 81.729,8.848 63.562,9.815 82.325,10.97 95.739,9.15 112.369,1.235 Z m 18.167,3.503 c -10.662,5.027 -15.33,5.851 -37.337,7.191 13.797,0.557 26.686,-0.16 37.337,-7.191 z M 95.248,20.023 c 10.644,1.237 29.289,-0.105 38.621,-9.788 -11.27,9.494 -32.119,9.154 -48.38,8.508 6.224,0.971 5.101,0.809 9.759,1.28 z m 45.621,-9.288 c 7.629,2.809 9.489,16.193 12.5,27 -1.347,-9.579 -3.648,-24.922 -12.5,-27 z"
           fill="#5d5857"
           stroke-width="none"
           opacity="1"
           style="overflow:hidden"
           transform="matrix(0.79375,0,0,0.79375,-207.23491,101.44154)" /><path
           id="SvgjsPath3806"
           d="m 155.579,12.925 c -4.348,-4.769 -8.252,-8.97 -14.63,-10.02 2.094,-2.463 3.566,-3.379 6.25,-1.85 -1.59,-1.871 -3.417,-2.226 -5.63,-0.22 1.271,-1.905 3.468,-3.46 6.3,-6.43 -4.231,1.985 -5.503,3.34 -7.12,5.42 2.285,-6.703 1.3,-3.128 3.72,-9.75 -2.529,2.836 -4.146,5.92 -4.859,9.72 0,-5.903 -0.185,-5.14 -0.07,-7.72 -1.387,3.089 -1.229,5.81 -1.229,7.59 -2.233,-3.682 -5.514,-6.8 -9.051,-9.35 -25.054,-18.289 -50.039,-1.456 -63.58,0.58 -5.489,0.927 -13.714,0.338 -19.35,-3.04 0.398,5.764 2.183,9.592 4.79,13.68 -10e-4,0 -1.47,-0.31 -1.47,-0.31 -2.019,-2.434 -2.214,-2.356 -2.96,-4.33 -0.191,1.763 0.101,2.74 0.25,3.74 -0.498,-0.13 -0.957,-0.268 -1.26,-0.34 -0.743,-2.414 -0.958,-4.25 -1.23,-6.29 -0.614,0.785 -1.922,3.18 -2.64,5.15 -2.999,-0.948 -3.214,-1.099 -7.43,-4.33 0.5,1 2.309,6.461 5.44,12.23 -0.47,3.534 -0.328,7.06 0.27,10.12 -5.025,6.312 -6.77,12.346 -7.56,20.44 -1.041,19.059 0.867,24.611 5.53,34.82 0.01,0.01 0.01,0.03 0.02,0.04 -0.177,1.971 0.119,5.102 0.44,7.18 1.179,6.332 2.625,10.693 7.91,17.65 0.02,0.02 0.03,0.05 0.05,0.07 3.395,-20.368 3.045,-20.867 3.77,-25.89 3.572,-25.712 3.417,-21.872 12.81,-40.07 3.813,2.628 8.035,3.552 14.02,1.56 4.342,2.524 8.776,4.45 21.06,4.45 12.171,-0.152 26.176,0.412 38.52,-7.53 -1.87,2.622 -6.118,7.154 -9.46,9.18 3.479,-0.736 5.975,-2.137 9.09,-5.84 -0.957,1.915 -2.083,4.814 -2.17,5.16 0.15,-0.18 2.15,-2.57 3.51,-4.7 -0.653,7.945 2.894,12.597 6.98,19.4 8.956,14.163 3.511,33.521 8.33,45.96 3.09,-4.996 7.04,-12.086 7.04,-17.75 5.21,-9.086 5.956,-21.111 3.39,-26.75 5.217,-15.631 4.163,-27.847 -7.791,-41.63 z M 46.789,-2.465 c 0.488,1.389 0.595,1.359 2.49,3.61 -0.94,-0.195 -1.565,-0.332 -2.13,-0.46 -0.219,-1.056 -0.36,-2.06 -0.36,-3.15 z m -2.51,-2.66 c 0.094,1.532 0.459,3.542 0.99,5.31 -2.865,-0.737 -1.8,-0.504 -2.8,-0.8 0.823,-2.474 1.133,-3.1 1.81,-4.51 z m 1.72,100.22 c -4.216,-7.605 -5.323,-10.191 -6.49,-17.89 -0.114,-0.886 -0.472,-3.446 -0.49,-4.67 -6.07,-13.88 -8.352,-40.236 1.21,-54.74 0,-0.01 0,-0.01 0,-0.01 0,0 0.399,-0.624 1.12,-1.52 -0.267,-1.344 -0.531,-4.18 -0.44,-7.28 0.74,1.32 1.58,2.52 2.33,3.67 0,-0.003 0.59,0.781 0.59,0.8 4.551,5.79 8.754,10.604 18.92,17.75 C 50.544,50.979 51.301,44.3 45.999,95.095 Z m 117.64,-46.889 c -0.356,2.358 -1.123,5.583 -1.539,6.99 2.78,7.068 -0.257,20.417 -3.061,26.38 -1.226,7.093 -2.545,8.521 -6.01,15.59 -2.477,-11 2.583,-30.519 -6.76,-45.08 -6.059,-10.044 -8.657,-11.36 -7.23,-23.77 0,0 0.061,-0.675 0.08,-0.85 -12.628,7.721 -26.576,8.594 -44.97,8.2 -5.317,0 -12.5,-0.668 -16.98,-3.44 -9.081,2.583 -12.45,-1.437 -20.01,-7.34 -8.163,-6.937 -13.709,-12.994 -20.55,-27.27 3.843,3.118 11.537,4.689 16.39,5.5 -3.273,-4.363 -5.199,-8.349 -6.07,-14 3.48,2.32 11.82,4.603 19.17,3.79 13.534,-1.271 32.484,-15.167 55.77,-4.63 10.804,4.767 16.286,11.476 17.57,15 0.01,0 0.02,0.01 0.04,0.01 0.06,0.02 0.12,0.03 0.189,0.04 0.017,0.018 0.332,0.09 0.36,0.09 6.976,2.325 7.443,2.759 14.2,10.64 3.798,4.659 12.94,13.96 9.411,34.15 z"
           fill="#201311"
           stroke-width="none"
           opacity="1"
           style="overflow:hidden"
           transform="matrix(0.79375,0,0,0.79375,-207.23491,101.44154)" /></g><g
         id="svga-group-hair-front-8"
         transform="matrix(2.2284686,0,0,2.2284686,29.592916,79.977304)"
         style="display:none;overflow:hidden"
         inkscape:label="hair_04"><path
           id="SvgjsPath4731"
           d="M 158.43,41.325 C 140,-4.765 100,0.405 100,0.405 c 0,0 -40,-5.169 -58.43,40.92 -9.245,23.12 2.158,50.324 2.158,50.324 h 5.826 C 44.46,69.897 50.35,73.987 50.73,69.927 c 0.118,-1.255 -0.3,-3.367 -0.421,-4.622 -0.592,-6.112 1.982,-18.029 5.245,-23.173 1.603,-2.526 5.369,-6.659 8.174,-7.699 9.97,-3.694 20.044,0.715 22.854,1.421 4.461,1.12 22.373,1.12 26.836,0 3.343,-0.839 13.182,-4.905 22.854,-1.321 2.806,1.04 6.871,4.972 8.474,7.499 3.263,5.144 5.537,16.16 4.945,22.272 -0.121,1.255 -0.539,4.367 -0.422,5.623 0.107,1.147 2.617,3.689 2.898,4.807 1.16,4.612 -1.722,16.915 -1.722,16.915 h 5.825 c 10e-4,0 11.406,-27.204 2.16,-50.324 z"
           fill="#2a232b"
           stroke-width="none"
           opacity="1" /><path
           id="SvgjsPath4732"
           d="M 154.938,31.163 C 136.178,-3.114 101.979,-0.631 100,-0.455 98.021,-0.631 63.823,-3.114 45.062,31.163 30.57,57.641 41.57,88.137 42.907,91.612 42.983,91.809 44.483,91.65 44.483,91.65 44.477,91.635 44.379,91.258 44.317,91.1 43.108,87.98 32.128,57.92 46.378,31.884 65.111,-2.342 99.595,1.007 99.94,1.046 l 0.06,-0.542 0.06,0.542 c 0.345,-0.039 34.829,-3.388 53.563,30.837 14.563,26.61 2.773,57.423 1.996,59.383 -0.021,0.055 -0.107,0.375 -0.111,0.383 0,0 1.506,0.169 1.575,-0.011 1.291,-3.344 12.384,-33.929 -2.145,-60.475 z"
           fill="#000000"
           stroke-width="none"
           opacity="1" /></g></g><g
       inkscape:groupmode="layer"
       id="layer13"
       inkscape:label="mustache"
       style="display:none"><g
         id="svga-group-mustache-single-move"
         transform="matrix(2.091838,0,0,2.091838,44.813958,100.38632)"
         style="overflow:hidden"
         inkscape:label="mustache_01"><g
           id="svga-group-mustache-single"><path
             id="SvgjsPath4717"
             d="m 80.56,143.19 c -7.87,-11.92 1.64,-21.9 10.5,-21.9 3.27,0 5.65,1.63 8.98,1.65 3.11,0 6.01,-1.58 9.11,-1.49 6.34,0 14.64,5.28 13.09,13.41 -0.5,2.55 -1.58,4.88 -2.76,7.65 -2.9,-13.79 -9.32,-10.74 -21.95,-11.35 -5.81,-0.28 -11.06,-0.54 -14.67,4.44 -1.44,2.23 -2.21,5.86 -2.3,7.59"
             fill="#2a232b"
             stroke-width="none"
             opacity="1" /><path
             id="SvgjsPath4718"
             d="m 114.64,122.65 c 6.79,5.52 7.15,10.66 5.4,15.4 -0.54,-6.99 -7.47,-13.3 -20.26,-10.03 -12.8,-4.02 -19.45,3.18 -20.08,10.88 -0.94,-5.92 0.12,-12.47 7.58,-17.01 -7.52,2.33 -13.72,11.17 -6.62,21.62 0,-1.41 0.73,-5.43 2.29,-7.85 3.98,-5.49 9.98,-4.55 16.6,-4.3 9.78,0.62 16.95,-2.77 19.86,11.28 0.01,0.08 0.03,0.15 0.05,0.22 0.08,-0.18 0.16,-0.38 0.25,-0.59 0.04,-0.1 0.09,-0.2 0.13,-0.31 0.97,-2.27 2.02,-4.56 2.51,-7.06 1.13,-6.03 -3.01,-10.28 -7.71,-12.25 z"
             fill="#1b141c"
             stroke-width="none"
             opacity="1" /><path
             id="SvgjsPath4719"
             d="m 109.15,121.36 c -3.11,-0.11 -6.08,1.52 -9.23,1.48 -2.44,-0.05 -4.81,-1.07 -6.76,-1.45 -9.31,-1.81 -21.46,8.97 -12.51,22.12 0,-1.41 0.73,-5.43 2.29,-7.85 3.98,-5.49 9.98,-4.55 16.6,-4.3 9.78,0.62 16.95,-2.77 19.86,11.28 0.01,0.08 0.03,0.15 0.05,0.22 0.08,-0.18 0.16,-0.38 0.25,-0.59 0.04,-0.1 0.09,-0.2 0.13,-0.31 0.97,-2.27 2.02,-4.56 2.51,-7.06 1.59,-8.38 -7.04,-13.54 -13.19,-13.54 z m 10.51,20.56 c -1.54,-14.71 -12.16,-11.49 -20.06,-11.91 -5.88,-0.22 -10.44,-0.85 -14.95,2.23 -3.33,2.74 -4.26,6.2 -4.26,10.61 -7.32,-12.58 4.24,-22.14 12.55,-20.57 3.98,0.87 5.66,2.25 10.84,0.96 1.21,-0.3 4.72,-1.27 6.2,-0.9 5.17,0.42 10.29,4.09 11.59,8.08 1.28,3.77 -1.04,8.99 -1.91,11.5 z"
             fill="#000000"
             stroke-width="none"
             opacity="1" /></g></g></g></g></svg>
