<?xml version="1.0" encoding="UTF-8" standalone="no"?>
<!-- Created with Inkscape (http://www.inkscape.org/) -->

<svg
   width="500"
   height="600"
   viewBox="0 0 500 600"
   version="1.1"
   id="svg1"
   xml:space="preserve"
   inkscape:export-filename="../../website/dummy/frontend/public/avatar/female_avatar/02_mouth/mouth_01.svg"
   inkscape:export-xdpi="96"
   inkscape:export-ydpi="96"
   inkscape:version="1.4.3 (0d15f75042, 2025-12-25)"
   sodipodi:docname="raw.svg"
   xmlns:inkscape="http://www.inkscape.org/namespaces/inkscape"
   xmlns:sodipodi="http://sodipodi.sourceforge.net/DTD/sodipodi-0.dtd"
   xmlns="http://www.w3.org/2000/svg"
   xmlns:svg="http://www.w3.org/2000/svg"><sodipodi:namedview
     id="namedview1"
     pagecolor="#ffffff"
     bordercolor="#000000"
     borderopacity="0.25"
     inkscape:showpageshadow="2"
     inkscape:pageopacity="0.0"
     inkscape:pagecheckerboard="0"
     inkscape:deskcolor="#d1d1d1"
     inkscape:document-units="mm"
     inkscape:export-bgcolor="#ffffff00"
     inkscape:zoom="1.0393815"
     inkscape:cx="319.42073"
     inkscape:cy="254.47827"
     inkscape:window-width="1920"
     inkscape:window-height="1011"
     inkscape:window-x="0"
     inkscape:window-y="0"
     inkscape:window-maximized="1"
     inkscape:current-layer="layer23"><inkscape:page
       x="0"
       y="0"
       width="500"
       height="600"
       id="page2"
       margin="0"
       bleed="0" /></sodipodi:namedview><defs
     id="defs1" /><g
     inkscape:groupmode="layer"
     id="layer14"
     inkscape:label="Female Avatar"
     style="display:inline"><g
       inkscape:groupmode="layer"
       id="layer23"
       inkscape:label="05_nose"
       style="display:inline"><g
         id="svga-group-nose-single-move-4"
         inkscape:label="nose_01"
         style="overflow:hidden"
         transform="matrix(2.2625074,0,0,2.2625074,27.26523,89.664095)"><g
           id="svga-group-nose-single-3"><path
             id="SvgjsPath3578"
             d="m 92.281,116.235 c -0.745,2.063 5.028,4.289 7.218,4.426 2.374,0.147 9.024,-2.899 7.896,-4.991 -1.185,-2.197 -5.63,-0.286 -7.547,-0.286 -1.908,0 -6.572,-1.905 -7.567,0.851 z"
             fill="#e4b3ab"
             stroke-width="none"
             opacity="1" /><path
             id="SvgjsPath3579"
             d="m 102.207,117.221 c -0.243,-0.522 1.194,-1.333 1.748,-1.493 0.777,-0.226 2.505,0.238 2.438,0.831 -0.06,0.521 -1.603,-0.169 -2.105,-0.022 -0.521,0.15 -1.853,1.175 -2.081,0.684 z m -6.993,-0.479 c 0.706,0 1.753,0.457 1.945,0.057 0.229,-0.479 -1.56,-1.065 -2.086,-1 -0.434,0.052 -1.991,0.958 -1.777,1.338 0.2,0.353 0.988,-0.395 1.918,-0.395 z"
             fill="#c5796d"
             stroke-width="none"
             opacity="1" /><path
             id="SvgjsPath3580"
             d="m 99.857,113.479 c 0.669,0 1.807,-0.637 1.978,-1.9 0.754,-5.575 -0.521,-20.246 -1.978,-20.246 -1.365,0 -2.508,15.024 -2.155,20.246 0.087,1.281 1.397,1.9 2.155,1.9"
             fill="#ffffff"
             stroke-width="none"
             opacity="0.2" /></g></g></g></g></svg>
